<?xml version="1.0" standalone="no"?>
<!DOCTYPE svg PUBLIC "-//W3C//DTD SVG 20010904//EN"
 "http://www.w3.org/TR/2001/REC-SVG-20010904/DTD/svg10.dtd">
<svg version="1.0" xmlns="http://www.w3.org/2000/svg"
 width="704.000000pt" height="938.000000pt" viewBox="0 0 704.000000 938.000000"
 preserveAspectRatio="xMidYMid meet">
<metadata>
Created by potrace 1.16, written by Peter Selinger 2001-2019
</metadata>
<g transform="translate(0.000000,938.000000) scale(0.100000,-0.100000)"
fill="#000000" stroke="none">
<path d="M1 7950 c1 -824 5 -1427 10 -1424 5 3 9 24 9 47 0 73 40 197 84 261
11 16 15 26 8 22 -7 -4 -12 -2 -12 3 0 6 9 11 19 11 11 0 27 8 37 18 10 9 29
22 43 29 l26 12 -28 -4 c-24 -3 -27 -1 -22 15 3 10 1 21 -5 25 -5 3 -10 -1
-10 -9 0 -13 -28 -36 -44 -36 -11 0 -6 37 9 71 8 19 14 30 15 26 0 -4 14 8 31
28 17 19 36 35 43 35 6 0 29 9 51 20 22 11 45 20 53 20 7 0 11 4 8 9 -3 4 3
16 14 26 22 20 28 8 7 -15 -6 -8 0 -5 14 8 17 15 38 22 67 22 34 0 51 8 99 47
32 26 60 50 63 54 3 4 22 7 43 7 21 0 51 5 67 12 29 12 38 10 176 -44 1 -1 7
-91 13 -201 6 -110 14 -217 16 -239 5 -32 3 -37 -10 -33 -20 8 -21 -36 0 -57
8 -8 15 -26 15 -40 0 -21 -5 -25 -27 -25 -16 1 -47 -2 -70 -6 -36 -6 -42 -11
-45 -36 -5 -34 20 -41 39 -10 9 14 21 18 54 15 24 -2 46 -9 51 -16 4 -8 8 4 8
30 0 23 5 42 10 42 6 0 10 -6 10 -12 0 -9 3 -8 10 2 7 12 10 11 16 -5 14 -37
39 -52 77 -47 23 3 37 0 37 -7 0 -6 10 -10 22 -8 15 1 26 -5 33 -20 5 -13 16
-23 23 -23 10 0 10 -3 0 -14 -8 -9 -17 -11 -23 -5 -5 5 -12 9 -16 9 -10 0 -30
-62 -23 -69 4 -3 9 0 11 6 4 10 8 9 19 -1 14 -15 9 -46 -7 -46 -5 0 -18 14
-31 30 -21 29 -58 41 -58 20 0 -5 5 -10 10 -10 6 0 10 -7 10 -16 0 -8 4 -13 9
-10 5 3 14 -1 21 -9 7 -8 9 -15 4 -16 -27 -3 -81 4 -91 12 -7 7 -13 5 -16 -3
-3 -8 -6 -5 -7 7 -1 11 -3 34 -5 50 -1 17 1 37 5 45 5 9 0 22 -11 34 -14 15
-19 16 -19 5 0 -12 -2 -11 -10 1 -8 12 -10 9 -10 -12 0 -23 -5 -28 -24 -28
-13 0 -44 -3 -70 -6 -38 -6 -46 -4 -46 10 0 14 -13 16 -87 15 -72 0 -83 -2
-63 -11 l25 -11 -33 -7 c-41 -10 -41 -9 -35 -42 5 -25 10 -28 44 -28 35 0 39
-3 39 -25 0 -18 -5 -25 -20 -25 -17 0 -20 -6 -18 -27 2 -18 -1 -27 -9 -25 -7
1 -13 -5 -13 -13 0 -8 9 -15 20 -15 11 0 20 -4 20 -10 0 -16 -56 -12 -70 5 -7
8 -18 15 -24 15 -6 0 -5 -4 3 -9 8 -5 9 -11 3 -15 -5 -3 -15 1 -22 9 -7 8 -9
15 -5 15 4 0 2 7 -5 15 -7 8 -16 12 -21 9 -5 -3 -9 4 -9 15 0 12 -5 21 -11 21
-8 0 -9 19 -4 60 5 39 3 60 -3 60 -6 0 -12 6 -15 13 -2 6 -2 3 1 -8 3 -16 5
-133 2 -177 0 -5 -4 -8 -9 -8 -6 0 -16 21 -23 47 -9 32 -20 49 -32 51 -15 3
-18 0 -13 -17 3 -12 1 -21 -4 -21 -5 0 -9 9 -9 20 0 13 -7 20 -20 20 -13 0
-20 -7 -20 -20 0 -27 -17 -25 -23 3 -4 15 -5 13 -4 -8 1 -35 -17 -50 -21 -17
-5 30 -62 33 -62 2 0 -11 -4 -20 -10 -20 -5 0 -10 10 -10 21 0 20 -3 21 -75
16 -48 -4 -75 -3 -75 4 0 6 -4 7 -10 4 -5 -3 -19 -1 -30 5 l-21 11 1 -405 c2
-389 2 -406 20 -406 10 0 21 -4 24 -9 3 -4 -5 -6 -18 -4 -23 5 -24 3 -25 -71
-1 -62 1 -76 14 -76 8 0 15 -4 15 -10 0 -5 -7 -10 -15 -10 -12 0 -15 -13 -15
-60 0 -49 3 -58 15 -54 8 4 15 2 15 -4 0 -5 -7 -12 -15 -16 -13 -5 -15 -59
-15 -407 l0 -402 52 7 c29 4 56 13 60 19 5 8 8 8 8 1 0 -11 61 -14 70 -3 4 4
366 37 605 54 44 3 179 8 300 10 121 2 272 11 335 20 63 9 167 23 230 31 63 8
119 19 124 24 13 13 29 13 21 0 -9 -15 2 -12 19 6 9 8 16 11 16 7 0 -16 134
-4 146 12 12 16 29 21 20 7 -3 -5 12 -9 32 -10 34 -2 37 0 39 25 0 15 6 29 12
31 7 2 8 10 1 21 -5 10 -6 22 -2 27 4 5 0 3 -9 -4 -10 -8 -19 -8 -25 -2 -7 7
-18 4 -34 -10 -21 -18 -42 -29 -27 -13 4 3 1 13 -6 21 -10 13 -9 14 10 8 13
-4 27 -1 37 9 21 22 20 24 -6 17 -18 -4 -20 -2 -14 14 4 10 4 15 0 11 -4 -4
-13 1 -21 11 -14 16 -14 16 -9 0 3 -10 0 -18 -5 -18 -7 0 -9 11 -7 25 3 13 1
22 -3 19 -5 -3 -9 1 -9 8 0 8 -5 6 -11 -5 -5 -9 -7 -22 -3 -28 4 -8 0 -8 -14
0 -17 9 -23 8 -31 -6 -9 -16 -10 -15 -11 5 0 13 4 21 9 17 6 -3 9 4 8 15 -1
16 -8 20 -32 18 -16 -1 -41 2 -55 6 -17 5 -21 4 -11 -2 21 -15 6 -42 -18 -35
-20 5 -30 33 -12 33 5 0 7 9 4 20 -3 11 0 21 6 21 6 1 17 2 24 3 6 1 18 -2 25
-8 10 -7 12 -4 7 17 -6 24 -5 26 11 21 17 -6 17 -5 -1 10 -11 10 -15 15 -8 12
6 -4 15 -2 18 4 4 6 3 10 -2 9 -19 -3 -34 2 -28 10 3 5 -4 12 -15 16 -19 6
-19 8 -3 23 15 15 14 17 -8 23 -41 12 -49 10 -49 -13 0 -18 -2 -20 -9 -9 -17
26 -1 44 35 38 19 -3 34 -2 34 4 0 7 -68 14 -101 11 -3 -1 -4 11 -2 26 1 15 0
21 -3 15 -9 -20 -21 -15 -28 12 -5 21 -12 25 -46 25 -29 0 -40 4 -40 15 0 14
24 20 58 16 9 -1 11 7 8 26 -3 15 0 10 7 -11 14 -43 37 -60 37 -29 0 11 11 29
25 41 14 12 25 28 25 36 0 8 7 17 16 20 23 9 31 7 14 -4 -11 -7 -12 -14 -5
-25 16 -27 29 -22 42 15 7 19 12 30 12 24 1 -20 51 -3 51 17 0 23 36 45 43 26
2 -6 8 -9 12 -4 9 8 -28 47 -45 47 -5 0 -10 5 -10 10 0 6 7 10 15 10 8 0 15 7
15 16 0 15 -2 15 -22 2 -13 -8 -33 -17 -44 -20 -20 -5 -21 -2 -18 36 2 22 1
33 -2 23 -4 -12 -11 -16 -21 -13 -13 5 -14 4 -4 -8 10 -12 5 -21 -23 -49 -23
-23 -38 -32 -48 -26 -18 12 -31 11 -23 -1 3 -5 1 -10 -5 -10 -19 0 -23 30 -6
49 18 19 7 39 -14 26 -5 -3 -10 -1 -10 4 0 6 9 11 20 11 13 0 20 7 20 20 0 11
9 25 20 32 27 17 25 28 -6 28 -31 0 -28 23 4 28 16 3 22 11 23 30 l1 27 9 -30
c5 -16 7 -40 4 -52 -3 -12 0 -25 7 -29 8 -5 9 -2 5 9 -4 11 -1 17 8 17 10 0
15 11 15 35 0 19 1 38 3 43 1 4 -10 8 -25 10 -35 4 -37 22 -3 22 14 0 25 5 25
11 0 8 -13 9 -40 5 -50 -8 -54 10 -5 20 21 4 53 22 78 45 22 22 48 39 57 39
12 0 12 2 2 9 -11 7 -11 9 2 14 9 4 16 16 16 27 0 11 6 20 14 20 13 0 31 28
23 36 -2 2 -16 5 -31 6 -17 2 -25 7 -22 15 3 7 1 13 -5 13 -6 0 -9 7 -5 15 3
8 1 15 -4 15 -6 0 -10 -7 -10 -16 0 -8 -4 -12 -10 -9 -5 3 -10 1 -10 -5 0 -6
-5 -8 -11 -5 -6 4 -8 14 -5 24 6 14 5 14 -7 -1 -9 -11 -18 -14 -28 -7 -8 5
-10 9 -5 9 5 0 -4 11 -20 25 l-29 25 53 0 c28 0 52 4 52 9 0 4 37 9 82 10 45
1 84 4 86 5 7 7 58 -49 53 -59 -2 -5 0 -7 4 -2 5 4 21 -5 37 -20 25 -24 37
-27 111 -30 101 -3 130 -9 120 -26 -5 -8 -2 -8 9 1 12 9 17 10 20 1 2 -6 15
-13 28 -14 41 -4 41 -4 34 -17 -4 -7 -4 -10 1 -6 4 4 16 3 26 -3 13 -7 19 -6
19 1 0 18 42 -10 48 -32 3 -15 11 -19 29 -15 18 3 36 -6 69 -34 25 -22 50 -39
56 -39 7 0 8 -13 5 -36 -4 -26 -1 -40 13 -54 10 -10 15 -22 12 -26 -4 -4 -1
-4 5 0 7 4 22 -2 34 -13 20 -18 102 -46 126 -42 6 1 14 -3 18 -9 4 -6 -1 -7
-11 -3 -12 4 -15 3 -10 -5 4 -7 14 -12 23 -12 13 0 13 -2 2 -17 -13 -15 -10
-15 26 -9 36 7 38 6 21 -7 -11 -8 -17 -21 -13 -30 3 -9 0 -18 -9 -21 -8 -3
-14 0 -14 6 0 9 -3 9 -11 1 -6 -6 -17 -9 -24 -6 -7 2 -26 -2 -42 -10 -15 -8
-43 -13 -61 -12 -28 2 -32 -1 -26 -18 6 -18 3 -19 -52 -12 -33 4 -56 3 -51 -1
4 -4 0 -18 -8 -31 -9 -13 -14 -23 -13 -24 49 -14 64 -7 59 30 -2 7 4 11 11 8
7 -2 12 -10 11 -16 -2 -6 2 -11 7 -11 6 0 10 8 10 17 0 9 3 13 8 9 4 -4 7 -13
7 -19 0 -7 10 -12 22 -11 12 0 20 -3 17 -8 -5 -8 -1 -9 66 -13 19 -1 44 -5 55
-8 11 -3 25 -6 30 -6 6 -1 -1 -7 -15 -15 -16 -8 -29 -9 -37 -3 -10 7 -13 4
-13 -12 0 -11 -4 -21 -10 -21 -5 0 -10 -7 -10 -15 0 -8 4 -15 9 -15 5 0 0 -16
-10 -36 -10 -20 -20 -42 -23 -48 -3 -7 -11 -4 -20 8 -9 11 -19 17 -22 13 -3
-3 10 -23 30 -43 20 -20 39 -34 43 -31 3 4 3 7 -1 7 -3 0 0 12 8 27 15 30 122
100 133 89 4 -4 -3 -9 -15 -13 -12 -3 -19 -9 -16 -14 3 -5 10 -7 15 -4 5 4 9
1 9 -4 0 -6 -5 -11 -11 -11 -5 0 -8 -4 -4 -9 8 -15 -15 -25 -28 -12 -6 6 -16
11 -21 11 -6 0 -4 -5 4 -10 10 -6 11 -10 3 -10 -7 0 -13 -5 -13 -12 0 -7 -12
-22 -26 -33 -26 -21 -26 -22 -10 -51 9 -16 16 -22 15 -14 -3 24 12 50 35 62
21 11 21 11 2 -10 -10 -12 -23 -45 -27 -74 -11 -67 -24 -79 -26 -23 -2 53 -14
77 -53 105 -38 27 -103 29 -130 5 -11 -10 -20 -23 -20 -29 0 -6 7 0 16 12 20
30 93 31 119 2 18 -20 15 -50 -5 -50 -6 0 -8 -5 -4 -11 3 -6 15 -8 26 -6 11 3
18 3 15 0 -8 -7 16 -32 26 -26 12 7 8 -14 -6 -25 -61 -51 -219 22 -201 94 9
34 -5 30 -18 -6 -7 -23 -15 -29 -28 -25 -30 10 -45 -23 -46 -101 0 -53 -5 -78
-16 -91 -26 -28 -38 -70 -38 -129 0 -51 -2 -55 -20 -49 -14 4 -20 2 -20 -9 0
-9 -12 -16 -32 -19 l-33 -4 36 -1 c27 -2 38 -7 42 -22 5 -21 8 -21 -93 -25
-25 -1 -37 0 -27 2 21 5 21 10 2 29 -11 11 -19 12 -34 4 -31 -16 -41 -12 -42
18 l-1 27 -10 -30 c-6 -16 -16 -33 -22 -37 -12 -8 -152 -24 -180 -20 -10 1
-25 -3 -32 -9 -8 -6 -26 -8 -41 -5 -22 5 -25 4 -13 -4 11 -9 7 -10 -20 -5 -19
4 -39 11 -44 16 -15 14 -24 11 -22 -8 1 -15 -8 -18 -54 -18 -30 0 -60 -3 -67
-8 -7 -4 -16 -1 -21 9 -7 13 -13 14 -28 6 -19 -11 -19 -11 0 -12 11 0 17 -3
13 -6 -3 -4 -19 -2 -36 4 -25 9 -29 8 -24 -4 4 -12 0 -13 -21 -4 -14 5 -26 7
-26 3 0 -3 -10 6 -23 20 -24 29 -47 24 -50 -11 0 -11 -5 -18 -9 -16 -4 3 -8
-1 -8 -8 0 -20 -59 -21 -103 -3 -21 9 -48 12 -66 9 -23 -5 -31 -3 -31 7 0 11
-2 11 -10 -1 -5 -8 -10 -10 -10 -5 0 6 -20 10 -45 10 -25 0 -45 -3 -45 -7 0
-8 -59 -38 -76 -38 -7 0 -11 -6 -8 -14 4 -10 -5 -13 -35 -13 -23 0 -41 4 -41
8 0 5 -9 9 -20 9 -11 0 -20 6 -20 14 0 9 -8 12 -25 8 -14 -2 -23 -8 -20 -12 3
-4 -3 -14 -12 -21 -15 -12 -16 -12 -10 4 3 9 2 17 -3 17 -6 0 -10 9 -10 20 0
14 -7 20 -22 20 -19 0 -20 -2 -8 -10 8 -5 10 -10 4 -10 -5 0 -15 5 -22 12 -9
9 -12 6 -12 -14 0 -27 -20 -51 -20 -26 -1 9 -4 8 -13 -3 -17 -22 -129 -32
-155 -13 -15 10 -21 11 -24 2 -3 -8 -12 -9 -36 0 -25 8 -32 8 -32 -2 0 -13
-40 -14 -80 -1 -14 4 -20 3 -16 -3 5 -9 -16 -18 -71 -28 -16 -3 -23 0 -23 11
0 8 -6 15 -14 15 -9 0 -12 -7 -9 -20 3 -12 2 -20 -3 -19 -5 1 -11 0 -14 -1
-15 -6 -138 -4 -134 2 3 5 -2 8 -10 8 -9 0 -16 5 -16 12 0 6 -8 4 -19 -6 -18
-16 -19 -16 -25 10 l-7 27 -15 -22 c-10 -14 -22 -20 -34 -16 -10 3 -25 -1 -33
-10 -9 -8 -26 -14 -39 -13 -14 2 -22 -2 -20 -10 1 -7 -3 -12 -10 -11 -7 1 -18
1 -25 0 -18 -2 -19 -1497 -1 -1504 10 -4 10 -7 1 -14 -8 -6 -12 -32 -12 -70 1
-49 5 -63 18 -66 14 -4 14 -5 -1 -6 -15 -1 -18 -11 -18 -52 0 -31 4 -48 10
-44 6 3 10 1 10 -4 0 -6 -4 -11 -9 -11 -5 0 -10 -129 -10 -304 -1 -239 1 -305
11 -309 10 -4 10 -6 1 -6 -7 -1 -13 -5 -13 -11 0 -14 53 -13 67 1 15 15 33 3
33 -21 0 -10 5 -20 12 -22 7 -3 5 -7 -6 -11 -9 -4 -15 -3 -12 2 9 14 -41 19
-66 7 -22 -11 -23 -17 -25 -136 -1 -85 3 -127 10 -132 9 -6 9 -10 1 -15 -16
-11 -19 -330 -3 -349 8 -10 8 -14 0 -14 -7 0 -11 -38 -11 -120 0 -82 4 -120
11 -120 8 0 8 -4 0 -14 -8 -9 -11 -155 -11 -515 l1 -501 1646 0 c1134 0 1650
3 1659 10 8 8 14 8 19 0 4 -6 103 -10 291 -10 188 0 283 3 279 10 -3 6 -1 10
4 10 6 0 11 -4 11 -10 0 -6 127 -10 361 -10 311 0 360 2 356 14 -4 10 -1 13 9
9 7 -3 14 -9 14 -14 0 -5 47 -9 105 -9 63 0 105 4 105 10 0 13 67 13 75 0 9
-15 925 -13 925 2 0 9 3 9 12 0 9 -9 98 -12 341 -12 l328 0 -5 23 -6 22 11
-22 c12 -23 13 -23 255 -23 l244 0 0 435 c-1 422 -1 435 -20 435 -10 0 -21 4
-24 9 -4 5 5 8 19 6 25 -2 25 -1 25 69 0 43 -5 77 -12 84 -9 9 -9 12 -1 12 14
0 13 435 -1 464 -7 14 -6 17 3 12 9 -6 11 41 10 198 -1 172 -4 203 -14 189 -8
-10 -17 -14 -21 -10 -5 4 -2 12 6 17 11 7 8 10 -12 10 -21 0 -26 -4 -21 -17 5
-11 3 -14 -6 -8 -7 4 -11 18 -8 32 3 18 1 23 -10 19 -8 -3 -18 -6 -23 -6 -4 0
-7 -7 -6 -16 0 -9 -5 -19 -13 -22 -10 -3 -11 2 -6 19 17 53 17 54 8 43 -8 -12
-63 -16 -61 -5 2 20 -3 31 -12 26 -6 -4 -22 0 -35 9 -35 23 -52 20 -29 -6 l19
-21 -28 18 c-15 10 -30 15 -34 11 -3 -3 -1 -6 5 -6 7 0 12 -5 12 -11 0 -5 -4
-8 -9 -5 -5 3 -11 -4 -14 -16 -7 -26 1 -38 12 -20 5 8 14 2 30 -19 13 -18 19
-29 12 -25 -6 4 -11 1 -11 -8 0 -9 -5 -16 -11 -16 -6 0 -8 8 -5 18 3 9 1 24
-4 32 -8 13 -10 12 -10 -2 0 -17 -1 -17 -19 -1 -11 9 -17 23 -13 31 4 11 1 14
-11 9 -9 -3 -17 -3 -17 1 0 4 -15 8 -32 7 -21 0 -40 8 -51 20 -18 20 -18 20
-12 -1 4 -14 1 -21 -10 -21 -8 0 -15 4 -15 9 0 4 -11 8 -25 8 -14 0 -25 4 -25
10 0 11 28 9 48 -3 6 -5 12 -4 12 2 0 5 -6 11 -12 14 -8 2 -9 8 -4 13 5 5 10
4 13 -3 3 -8 13 -9 36 -2 43 12 47 12 47 -7 0 -8 -4 -12 -10 -9 -6 3 -10 2
-10 -3 0 -6 7 -12 15 -16 8 -3 15 -1 15 5 0 6 7 6 20 -1 20 -10 20 -10 2 24
-9 20 -23 36 -29 36 -7 0 -13 5 -13 10 0 6 -5 10 -11 10 -5 0 -7 -6 -3 -12 6
-10 4 -10 -7 0 -7 6 -20 12 -28 12 -13 -1 -12 -4 4 -16 20 -15 19 -15 -5 -12
-19 2 -24 8 -22 23 3 18 2 18 -13 -3 -9 -12 -21 -22 -26 -22 -6 0 -3 7 5 16
20 19 20 28 1 44 -10 9 -15 9 -15 1 0 -6 -7 -11 -15 -11 -10 0 -14 9 -11 30 4
38 13 48 22 26 11 -28 21 -17 20 24 0 22 -4 40 -8 40 -4 0 -8 -7 -8 -15 0 -8
-7 -15 -16 -15 -11 0 -15 6 -11 20 3 11 1 23 -4 26 -5 3 -9 0 -9 -7 0 -6 -8
-18 -17 -26 -10 -8 -12 -12 -5 -8 6 3 12 3 13 -2 0 -4 3 -20 5 -35 2 -14 0
-29 -6 -33 -6 -4 -5 -13 3 -26 10 -16 9 -21 -3 -29 -13 -8 -12 -10 3 -10 9 0
17 4 17 10 0 5 10 14 23 20 20 10 20 10 5 -3 -10 -8 -18 -21 -18 -30 0 -11 -8
-14 -30 -11 -16 3 -38 0 -50 -6 -17 -9 -22 -7 -32 15 -6 14 -15 25 -20 25 -5
0 -16 7 -25 15 -8 9 -18 13 -21 10 -4 -3 7 -17 23 -31 17 -14 22 -23 13 -20
-11 3 -23 -3 -32 -15 -13 -20 -14 -20 -27 -2 -9 11 -26 18 -46 17 -18 -1 -33
3 -33 8 0 4 9 8 20 8 11 0 20 5 20 10 0 6 5 9 12 8 7 -2 13 9 13 24 1 20 -4
28 -16 28 -10 0 -21 5 -24 10 -3 6 -12 10 -18 10 -7 0 -4 -5 6 -11 9 -6 15
-14 12 -19 -3 -5 -1 -12 5 -15 8 -5 7 -11 -1 -21 -16 -19 -42 2 -34 27 5 14
-1 22 -20 29 -36 14 -44 12 -21 -5 11 -8 17 -18 13 -21 -8 -9 -67 6 -67 17 0
5 -7 9 -15 9 -17 0 -34 29 -28 48 3 6 -4 15 -14 20 -10 4 -19 13 -21 20 -1 8
2 11 8 7 15 -9 12 2 -6 30 -19 29 -34 32 -34 8 0 -9 -3 -14 -6 -10 -11 11 6
44 31 57 13 7 22 17 19 22 -3 4 6 8 20 8 18 0 24 4 20 14 -4 11 0 13 15 9 13
-3 21 -1 21 7 0 6 -9 14 -19 17 -11 3 -17 11 -15 18 3 7 1 16 -5 20 -6 3 -11
2 -11 -3 0 -5 -7 -9 -15 -9 -8 0 -15 4 -15 9 0 4 -7 8 -15 8 -8 0 -15 6 -15
14 0 9 -12 16 -27 18 -19 2 -29 10 -31 23 -3 20 -3 20 12 1 9 -11 19 -17 22
-13 7 7 -20 37 -33 37 -9 0 -63 109 -63 128 0 6 -3 12 -6 12 -11 0 -75 -41
-149 -96 -129 -94 -238 -165 -249 -161 -6 3 -40 73 -76 157 l-64 153 24 19
c14 10 114 78 223 149 176 116 215 144 190 137 -5 -1 -21 5 -38 15 -29 16 -29
16 -6 17 13 0 21 3 18 7 -12 11 54 62 72 55 14 -5 14 -4 2 11 -7 9 -9 17 -4
17 10 0 33 57 33 83 0 9 -8 25 -18 35 -22 22 -25 55 -5 48 8 -3 11 -1 8 4 -3
6 -1 10 5 10 6 0 9 4 6 9 -4 5 -1 11 6 13 7 3 5 7 -6 11 -10 4 -15 3 -11 -3 3
-6 1 -10 -5 -10 -6 0 -8 -4 -5 -10 3 -5 1 -10 -4 -10 -30 0 26 91 69 112 19
10 30 18 23 18 -6 0 -19 7 -27 16 -10 10 -16 11 -16 3 0 -9 -4 -8 -15 1 -8 7
-15 8 -15 3 0 -5 -10 -9 -22 -10 -13 -1 -43 -7 -67 -14 -37 -11 -45 -10 -55 3
-6 8 -21 18 -33 22 -18 6 -22 4 -17 -8 3 -9 10 -16 16 -16 5 0 7 -4 4 -9 -3
-5 4 -12 17 -16 13 -4 17 -8 9 -12 -6 -2 -9 -9 -6 -15 10 -15 -30 8 -46 26 -7
9 -19 16 -26 16 -8 0 -14 7 -14 16 0 8 -4 13 -9 9 -5 -3 -13 4 -16 15 -4 12
-21 36 -39 54 l-33 32 29 -4 c15 -2 28 -8 28 -13 0 -5 10 -9 23 -9 21 1 22 1
3 15 -11 8 -16 15 -10 15 5 0 2 5 -6 10 -22 14 -78 12 -83 -2 -4 -10 -7 -10
-18 -1 -11 11 -10 13 4 13 9 0 17 5 17 11 0 6 -7 9 -15 5 -22 -8 -19 30 6 84
12 25 21 59 21 75 -1 17 5 40 13 51 8 12 18 37 22 55 6 24 16 35 31 37 14 2
19 8 15 20 -3 9 11 -1 31 -23 19 -22 35 -34 36 -26 0 7 6 11 14 8 7 -3 19 0
26 6 10 9 11 9 5 -1 -4 -9 0 -15 14 -19 11 -3 18 -9 15 -14 -3 -5 6 -4 20 2
14 7 23 16 19 22 -4 6 -1 7 6 3 7 -5 10 -15 7 -23 -3 -8 -1 -11 4 -8 6 3 10 1
10 -4 0 -6 13 -11 29 -11 17 0 33 -4 36 -10 3 -5 -3 -10 -14 -10 -23 0 -41
-22 -23 -28 7 -2 10 -8 7 -13 -4 -5 2 -6 11 -2 11 4 15 2 11 -4 -4 -6 6 -10
24 -11 34 -1 52 -12 31 -19 -16 -6 -5 -23 14 -23 9 0 12 5 8 11 -4 8 -1 8 14
0 12 -6 19 -17 16 -24 -6 -17 39 -42 61 -33 9 3 14 2 11 -3 -3 -5 6 -12 22
-16 15 -3 41 -16 57 -28 17 -13 42 -29 57 -36 15 -8 25 -17 23 -21 -2 -4 7
-12 22 -19 21 -10 28 -9 35 1 7 10 9 10 5 -2 -4 -16 15 -40 31 -40 5 0 20 -9
34 -19 14 -11 36 -18 52 -17 15 2 33 -2 40 -10 8 -7 17 -9 22 -4 5 5 21 6 36
3 23 -4 26 -8 18 -23 -5 -9 -7 -20 -4 -23 3 -3 -4 -8 -16 -12 -14 -4 -25 -2
-30 5 -6 10 -15 10 -40 1 -43 -15 -80 -14 -81 2 0 6 -4 2 -9 -10 -7 -16 -18
-23 -37 -23 -22 0 -25 -2 -13 -10 12 -8 12 -10 -5 -10 -18 -1 -19 -1 -3 -11
33 -19 108 -37 130 -31 16 4 19 2 13 -8 -6 -10 -4 -12 8 -7 22 8 30 -8 11 -23
-8 -7 -13 -19 -10 -27 4 -10 1 -11 -14 -3 -32 17 -31 11 6 -25 21 -21 45 -35
59 -35 18 0 23 -4 19 -15 -4 -10 0 -15 10 -15 9 0 27 -7 40 -15 13 -9 28 -15
32 -14 24 4 44 -2 39 -12 -4 -6 2 -13 13 -16 17 -4 18 -10 12 -39 -5 -19 -4
-34 1 -34 5 0 9 6 9 13 0 6 5 4 11 -6 5 -9 15 -17 22 -17 7 0 18 -9 25 -21 11
-18 11 -20 -5 -19 -10 1 -23 2 -29 1 -11 -1 -12 -61 0 -79 4 -7 2 -12 -5 -12
-21 0 23 -40 45 -41 12 0 15 -3 9 -6 -33 -13 40 -45 99 -43 15 0 29 -4 33 -10
3 -5 -1 -10 -9 -10 -9 0 -16 -4 -16 -8 0 -16 23 -30 39 -25 11 3 12 2 4 -4 -8
-6 -9 -14 -3 -23 6 -9 10 -10 10 -3 0 6 9 9 20 6 11 -3 18 -9 15 -13 -5 -8 70
-32 108 -34 l22 -1 3 214 c2 161 -1 217 -10 229 -10 12 -10 14 -1 8 10 -5 13
120 13 587 l0 595 -37 7 c-21 5 -49 9 -63 11 -14 2 -50 10 -80 19 -30 9 -70
17 -88 19 -18 2 -43 12 -54 23 -16 14 -22 15 -25 5 -4 -11 -8 -10 -22 1 -22
20 -179 80 -212 81 -15 1 -25 4 -22 9 4 7 2 8 -54 10 -36 2 -58 17 -24 17 25
0 27 30 2 38 -8 3 -11 0 -8 -5 3 -5 0 -10 -8 -10 -8 0 -12 4 -9 9 3 4 0 8 -5
8 -6 0 -11 -4 -11 -10 0 -5 -5 -10 -11 -10 -6 0 -8 7 -5 16 4 11 -4 19 -29 30
-41 17 -89 19 -80 3 4 -6 13 -8 21 -5 7 3 16 1 19 -4 4 -6 21 -10 38 -10 29
-1 30 -2 15 -14 -10 -7 -15 -16 -11 -19 3 -4 -1 -7 -10 -7 -9 0 -17 5 -17 11
0 6 -6 9 -14 6 -8 -3 -16 0 -19 6 -4 10 -83 27 -197 42 -48 6 -243 64 -249 74
-4 5 -20 10 -36 10 -17 -1 -59 11 -94 25 -35 14 -79 28 -97 32 -19 3 -34 11
-34 16 0 6 -7 8 -15 5 -8 -4 -17 -2 -20 3 -4 6 -19 10 -35 10 -16 0 -41 5 -57
11 -15 6 -50 15 -78 20 -27 6 -59 12 -71 15 -11 2 -68 18 -125 35 -57 17 -120
34 -139 39 -19 4 -33 8 -30 9 3 1 52 10 110 21 57 12 156 34 220 50 248 63
295 72 338 66 32 -4 42 -2 42 8 0 10 23 18 73 26 39 7 88 16 107 20 36 7 80
-5 80 -22 0 -5 4 -7 8 -4 5 3 41 2 80 -3 49 -5 72 -4 72 3 0 6 10 -1 21 -16
15 -20 30 -28 52 -28 18 0 54 -7 80 -15 27 -8 70 -13 97 -11 26 3 58 -1 71 -8
13 -6 50 -11 82 -10 48 1 55 0 40 -11 -15 -12 -15 -13 4 -19 11 -4 68 -7 127
-8 59 -1 110 -6 113 -12 4 -5 -6 -7 -25 -3 -40 8 -41 2 -1 -18 20 -11 34 -13
42 -7 16 13 69 3 60 -11 -4 -6 0 -8 10 -4 10 3 17 3 17 -2 0 -5 12 -12 27 -16
37 -9 53 -23 53 -47 0 -14 5 -18 16 -14 9 3 25 6 37 7 l22 0 -22 9 c-13 5 -23
15 -23 22 0 10 2 10 9 -1 6 -9 11 -10 15 -2 4 6 5 15 2 20 -3 4 6 6 19 3 l25
-4 0 281 c0 206 -3 280 -11 275 -11 -6 -27 -11 -139 -39 -30 -7 -82 -21 -115
-30 -84 -23 -173 -45 -220 -54 -66 -13 -159 -40 -287 -82 -67 -22 -123 -37
-126 -35 -2 3 -12 1 -21 -4 -9 -5 -37 -11 -61 -14 -25 -3 -67 -12 -95 -20 -57
-16 -173 -38 -320 -60 -55 -9 -136 -27 -180 -41 -44 -15 -87 -24 -97 -22 -9 3
-26 -2 -38 -10 -11 -8 -27 -12 -35 -9 -8 3 -15 2 -15 -2 0 -4 -9 -9 -20 -10
-11 -1 -29 -3 -40 -4 -11 -1 -20 -5 -20 -8 0 -4 -12 -7 -27 -7 -16 -1 -77 -12
-138 -26 -60 -14 -139 -29 -175 -32 -36 -3 -75 -8 -88 -11 -12 -2 -21 -1 -21
3 3 12 -39 94 -62 123 -11 14 -21 41 -23 60 -2 19 -11 52 -20 74 -9 21 -16 42
-16 47 0 5 -11 30 -24 56 -31 62 -67 152 -71 179 -3 19 0 20 48 13 28 -5 55
-13 61 -19 18 -18 30 -11 13 8 -15 17 -15 18 3 19 11 1 19 -1 18 -5 -7 -34 45
-53 152 -58 19 0 40 -2 45 -4 6 -1 14 -2 19 -1 5 1 3 -6 -5 -15 -9 -12 -9 -15
-1 -10 7 4 12 2 12 -5 0 -7 9 -9 22 -6 29 8 113 -4 97 -13 -16 -10 0 -14 141
-35 63 -9 143 -23 178 -30 34 -7 62 -9 62 -4 0 5 4 9 9 9 14 0 20 -38 7 -44
-10 -4 78 -10 98 -7 5 1 3 -6 -4 -16 -8 -10 -10 -15 -6 -11 5 4 15 3 21 -2 8
-7 29 -7 61 -1 27 5 99 17 159 27 120 18 134 22 114 35 -12 7 -12 9 0 9 8 0
11 6 7 18 -5 15 -4 14 9 -2 8 -10 16 -22 17 -27 2 -4 27 -3 55 3 31 6 50 15
46 21 -4 6 -1 7 7 2 6 -4 29 -3 49 3 20 6 115 29 211 53 138 33 181 47 204 68
23 21 28 22 22 7 -5 -15 -3 -17 16 -12 13 3 30 6 38 6 12 0 12 2 2 9 -18 11
-10 47 9 43 10 -2 9 2 -3 11 -24 19 -23 26 4 19 14 -3 19 -2 14 6 -4 7 -15 12
-25 12 -14 0 -21 -10 -26 -37 -3 -20 -10 -32 -13 -27 -11 14 -45 18 -37 3 6
-9 1 -10 -21 -5 -40 10 -41 13 -15 40 l22 23 -25 -4 c-15 -3 -26 -3 -26 -1 0
3 23 19 51 38 l51 32 36 -33 c20 -19 42 -40 50 -47 12 -11 12 -16 -2 -37 -20
-31 -20 -35 3 -35 29 0 243 50 276 65 16 7 63 21 102 31 l72 18 1 457 c0 393
-2 458 -15 469 -8 7 -12 17 -9 22 4 6 0 14 -7 19 -11 7 -9 10 9 15 12 4 22 11
22 16 0 5 -5 6 -12 2 -7 -5 -8 -3 -3 7 14 21 14 57 1 62 -14 6 -50 -23 -54
-43 -2 -8 -9 -18 -15 -22 -16 -10 -147 -10 -147 0 0 14 -58 11 -70 -3 -7 -8
-17 -12 -22 -8 -6 3 -9 0 -6 -8 3 -10 27 -13 99 -10 52 1 104 5 117 8 19 4 22
1 22 -22 0 -21 -4 -26 -22 -25 -13 1 -26 1 -30 0 -9 -3 -39 -7 -64 -9 -12 -1
-15 -9 -12 -31 3 -16 1 -30 -4 -30 -4 0 -8 4 -8 9 0 6 -12 6 -29 1 -16 -4 -32
-6 -35 -2 -11 10 -6 22 10 22 9 0 14 6 11 13 -3 8 -21 11 -57 9 -44 -2 -51 0
-47 13 4 8 1 15 -5 15 -7 0 -7 4 1 14 15 17 0 29 -25 19 -13 -5 -16 -3 -11 10
4 10 1 17 -6 17 -8 0 -8 3 2 9 9 6 10 11 2 15 -17 11 -32 -4 -26 -25 5 -14 3
-17 -10 -13 -9 4 -14 12 -11 20 3 8 -2 11 -15 9 -17 -3 -18 -1 -10 9 9 10 7
15 -6 20 -10 4 -19 2 -21 -4 -3 -8 -8 -8 -17 0 -11 10 -14 4 -12 -32 1 -24 6
-46 10 -49 9 -7 -53 -49 -72 -49 -6 0 -11 -5 -11 -11 0 -5 -4 -7 -10 -4 -5 3
-10 2 -10 -4 0 -6 -7 -8 -15 -5 -10 4 -15 0 -15 -12 0 -11 4 -15 8 -9 11 15
49 14 49 -1 0 -8 -3 -14 -6 -15 -3 0 -29 -2 -58 -4 -29 -2 -56 -5 -60 -8 -4
-3 -19 0 -33 5 -24 9 -24 10 -6 24 11 8 36 14 55 14 22 0 31 4 26 9 -6 6 -43
4 -95 -4 -47 -7 -77 -13 -67 -14 11 -1 15 -6 11 -12 -5 -8 -1 -8 14 0 28 15
31 14 28 -6 -3 -16 -16 -18 -114 -19 -62 -1 -112 2 -112 7 0 5 -7 9 -16 9 -8
0 -13 -4 -9 -9 3 -5 1 -12 -5 -16 -5 -3 -10 -1 -10 4 0 6 -5 11 -11 11 -5 0
-7 -4 -4 -10 4 -6 -2 -7 -16 -2 -12 5 -23 16 -25 25 -1 12 5 15 30 13 17 -2
21 -1 10 1 -12 2 -26 14 -32 26 -6 12 -11 16 -11 9 -2 -27 -21 0 -21 29 0 21
6 32 23 39 l22 9 -24 0 c-15 1 -21 6 -18 14 4 10 -9 11 -57 6 -68 -7 -106 -22
-87 -33 12 -8 16 -57 4 -55 -23 4 -33 -3 -33 -21 0 -11 -3 -20 -7 -20 -5 0 -6
42 -4 92 1 51 0 90 -4 87 -3 -4 -7 -21 -7 -38 -1 -17 -5 -31 -11 -31 -5 0 -7
13 -3 31 3 17 6 47 6 65 0 41 17 45 23 7 2 -16 4 -3 4 27 1 30 -1 47 -4 38 -9
-36 -26 -18 -19 20 3 20 6 47 6 60 0 13 6 22 15 22 12 0 15 14 14 73 -1 71 -1
72 -9 24 -5 -27 -12 -52 -15 -55 -4 -4 -4 9 -1 28 3 19 9 80 13 135 6 83 8 92
13 55 l5 -45 8 59 c4 32 5 61 2 64 -3 3 -5 -2 -5 -11 0 -9 -5 -17 -11 -17 -17
0 -2 122 16 136 18 14 20 75 3 93 -10 11 -10 13 0 7 14 -8 17 10 2 19 -15 10
-12 25 6 25 14 0 14 1 0 16 -23 22 -21 71 3 79 10 3 31 23 45 45 14 22 31 40
38 40 6 0 8 3 5 7 -4 3 0 17 8 30 9 13 13 29 9 35 -4 7 -3 8 5 4 6 -4 13 -1
16 6 4 10 32 12 120 10 70 -2 115 1 115 7 0 5 2 15 5 23 4 11 -14 13 -100 10
-105 -4 -120 1 -92 30 17 18 49 68 43 68 -3 0 6 12 20 27 14 15 23 35 21 45
-3 9 0 19 7 22 7 3 7 5 -1 5 -7 1 -13 6 -13 11 0 6 29 10 68 10 41 0 62 4 53
9 -15 9 -12 61 7 119 l11 32 -115 0 -114 0 0 -80 0 -80 35 0 c35 0 47 -16 20
-26 -8 -4 -15 -10 -15 -16 0 -15 -100 -158 -111 -158 -6 0 -7 -4 -4 -10 6 -9
-90 -160 -102 -160 -3 0 -3 16 0 35 l6 35 -60 0 c-41 0 -58 3 -53 11 4 7 -3 6
-17 -2 -13 -7 -25 -12 -26 -11 -13 9 -62 -1 -67 -14 -5 -12 -1 -14 16 -8 20 6
21 4 15 -42 -4 -31 -14 -55 -27 -65 -19 -17 -19 -17 3 -23 13 -3 25 0 30 9 4
8 17 15 27 15 12 0 20 7 20 17 0 13 -3 14 -12 5 -20 -20 -28 -14 -28 22 0 55
8 66 50 66 43 0 50 -10 50 -71 0 -28 -4 -39 -15 -39 -8 0 -15 -7 -15 -15 0 -8
8 -14 18 -13 50 4 52 1 51 -64 0 -35 -3 -77 -6 -95 l-5 -32 -92 -3 c-86 -3
-91 -4 -94 -25 -4 -26 5 -27 127 -23 49 1 62 -1 59 -12 -4 -9 -28 -13 -94 -13
l-89 0 -5 -68 c-3 -37 -3 -72 -2 -77 2 -6 42 -10 92 -10 l88 0 -5 -87 c-2 -49
-6 -94 -8 -100 -3 -9 -30 -13 -90 -13 -81 0 -85 -1 -85 -22 0 -22 3 -23 85
-22 67 1 85 -1 85 -12 0 -11 -19 -14 -85 -14 -63 0 -85 -3 -85 -13 0 -13 -66
-43 -87 -39 -6 2 -14 -2 -18 -7 -7 -12 42 -47 52 -37 3 3 1 6 -5 6 -18 0 -14
27 4 34 37 14 44 7 44 -44 l0 -50 85 0 85 0 0 -50 c0 -27 -3 -50 -7 -50 -5 0
-6 -22 -5 -50 4 -49 3 -50 -24 -50 -17 0 -36 9 -49 23 -11 13 -16 17 -12 10
12 -17 0 -32 -23 -30 -13 1 -18 7 -15 17 2 8 0 22 -5 30 -8 12 -10 10 -10 -8
0 -16 -4 -21 -12 -16 -10 6 -10 4 0 -8 10 -13 9 -16 -9 -21 -18 -5 -20 -2 -14
16 4 12 6 33 6 46 -1 16 3 21 14 18 9 -4 12 -1 8 9 -3 7 -1 14 5 14 5 0 12 -7
16 -15 3 -8 16 -14 28 -14 23 2 23 2 1 6 -12 2 -25 13 -28 24 -4 11 -14 18
-23 17 -12 -2 -21 9 -30 37 -9 29 -19 41 -33 42 -10 1 -17 -2 -14 -6 2 -5 -4
-16 -15 -26 -11 -10 -20 -22 -20 -27 0 -5 11 3 23 18 16 18 26 24 31 16 4 -7
3 -12 -2 -12 -5 0 -8 -25 -8 -55 1 -30 4 -55 8 -55 11 0 16 24 10 58 -5 35 12
45 21 12 3 -11 2 -18 -3 -15 -4 2 -7 -14 -6 -38 1 -41 0 -42 -33 -43 -19 0
-36 -5 -38 -11 -3 -7 4 -9 16 -6 12 3 21 1 21 -5 0 -18 -50 -21 -61 -3 -9 14
-10 14 -5 -1 7 -22 -10 -24 -18 -3 -4 11 3 19 19 25 35 13 31 25 -10 27 -20 2
-35 -2 -35 -8 0 -5 5 -7 10 -4 6 3 10 1 10 -4 0 -25 -35 -5 -43 24 -5 19 -5
19 -12 -2 -4 -13 -11 -20 -16 -17 -5 3 -7 10 -4 15 13 19 -13 8 -29 -13 l-17
-23 5 23 c2 12 0 22 -5 22 -5 0 -9 -8 -9 -17 0 -15 -2 -16 -10 -3 -8 13 -10
13 -10 -1 0 -9 -11 -21 -24 -27 -22 -10 -25 -8 -29 11 -4 18 -5 17 -6 -5 -1
-22 -6 -28 -23 -29 -13 0 -34 -2 -47 -5 -24 -4 -24 -4 -6 16 22 25 29 26 20 3
-5 -15 -4 -16 6 -5 23 22 -12 46 -52 37 -19 -5 -28 -10 -21 -12 6 -3 12 -13
12 -24 0 -20 -10 -23 -47 -13 -27 7 -31 34 -5 35 9 0 4 5 -12 9 -31 10 -50 5
-40 -11 3 -5 10 -7 15 -4 5 4 9 -1 9 -9 0 -9 -6 -16 -12 -16 -16 0 -47 20 -33
20 6 0 2 5 -8 11 -14 8 -17 18 -12 36 4 16 2 22 -5 18 -5 -3 -10 -2 -10 4 0 5
7 14 16 19 11 6 13 11 5 16 -14 9 -33 -2 -26 -15 4 -5 2 -9 -4 -9 -10 0 -8
-34 3 -61 5 -12 1 -15 -16 -15 -13 1 -23 -5 -23 -13 0 -8 -7 -16 -15 -19 -8
-3 -12 -1 -8 3 4 4 -2 20 -13 36 -10 15 -18 31 -17 36 2 4 -2 9 -7 11 -6 1
-10 -6 -10 -15 0 -10 -6 -22 -12 -26 -7 -4 -13 -15 -13 -24 0 -13 3 -13 15 -3
23 19 18 -1 -7 -27 -17 -19 -19 -23 -5 -17 12 4 17 1 17 -10 0 -17 -9 -20 -26
-8 -12 8 -14 112 -1 112 9 0 8 59 -2 85 -9 22 -3 55 10 55 5 0 6 -7 3 -15 -6
-14 6 -20 30 -16 5 1 6 -5 3 -13 -4 -9 6 -27 23 -45 19 -18 28 -35 24 -45 -3
-9 -1 -16 5 -16 6 0 11 6 11 14 0 8 5 16 11 18 5 2 -4 24 -20 48 -17 25 -31
49 -31 54 0 5 20 6 45 4 25 -3 45 -2 45 1 0 4 16 5 35 3 31 -4 35 -2 35 19 1
13 3 49 6 79 l5 55 -93 -2 c-51 -1 -98 -3 -105 -3 -7 0 -13 -20 -15 -50 -2
-28 -7 -49 -13 -48 -6 2 -10 80 -9 211 0 114 -3 202 -8 195 -9 -15 -8 -16 -14
37 -4 41 12 83 23 57 4 -10 8 -9 17 3 9 13 11 0 8 -60 l-4 -75 33 -1 c76 -2
131 0 151 7 27 8 55 34 37 34 -12 0 -9 46 7 98 6 22 6 22 -106 22 -99 0 -111
2 -100 15 10 11 36 15 111 15 l99 0 0 26 0 26 -85 -7 c-47 -4 -85 -3 -85 2 0
4 22 45 50 91 27 45 45 82 40 82 -6 0 -10 7 -10 16 0 28 -17 5 -106 -142 -85
-141 -89 -150 -96 -223 -3 -42 -7 -115 -7 -164 l-1 -87 -27 17 c-39 25 -43 32
-43 86 l0 47 -114 0 -114 0 -4 -52 c-1 -29 -2 -68 0 -86 l3 -33 56 7 c54 6 56
6 50 -15 -7 -27 26 -29 45 -3 8 11 28 19 49 20 29 2 36 -1 35 -15 -1 -34 14
-84 24 -78 5 3 10 -1 10 -9 0 -9 5 -16 10 -16 6 0 10 -8 10 -17 0 -14 -5 -12
-28 9 -15 14 -48 33 -74 43 -27 10 -48 20 -48 24 0 3 -19 7 -43 7 -23 1 -37 0
-30 -3 7 -2 9 -11 7 -18 -5 -11 -17 -8 -59 16 -36 20 -55 26 -60 19 -4 -6 -4
-14 -1 -17 3 -4 6 -1 6 6 0 7 14 -1 30 -19 38 -40 38 -50 0 -50 -33 0 -49 -22
-31 -43 6 -8 28 -20 50 -27 34 -11 38 -15 26 -27 -8 -7 -11 -21 -8 -29 10 -25
-30 -13 -43 14 -6 12 -13 21 -15 19 -2 -1 2 4 10 11 10 8 11 12 3 12 -24 0
-27 2 -39 23 -16 28 -16 64 -1 69 9 3 9 6 0 12 -7 4 -12 2 -12 -3 0 -6 -5 -11
-11 -11 -5 0 -7 5 -4 10 3 6 1 10 -4 10 -6 0 -11 -4 -11 -10 0 -5 -4 -10 -10
-10 -6 0 -5 11 3 28 13 30 27 43 38 36 4 -2 11 1 15 7 5 8 -1 10 -20 7 -26 -5
-38 14 -16 27 5 3 7 19 3 35 -3 17 0 44 7 60 7 17 10 33 7 37 -4 3 -11 -7 -17
-23 -6 -16 -17 -32 -23 -36 -9 -6 -9 -10 1 -17 11 -6 10 -10 -3 -15 -23 -8
-67 -7 -82 2 -15 10 -8 53 9 63 7 4 22 15 33 24 19 16 19 16 -3 5 -13 -7 -25
-10 -28 -8 -8 8 47 78 61 78 8 0 15 5 15 10 0 17 -63 -14 -66 -33 -1 -10 -16
-39 -32 -65 -16 -26 -32 -54 -35 -62 -3 -9 -6 -10 -6 -2 -1 6 -7 12 -15 12 -8
0 -17 8 -19 18 -3 9 -5 0 -6 -21 0 -21 3 -36 7 -33 5 3 9 0 9 -7 0 -7 4 -21 9
-32 7 -20 7 -20 -15 -1 -16 15 -24 17 -33 8 -9 -9 -7 -16 5 -30 11 -12 15 -26
10 -38 -6 -17 -8 -17 -13 5 -3 14 -12 27 -19 29 -8 3 -11 0 -7 -7 4 -6 3 -11
-2 -11 -18 0 -21 29 -4 40 11 7 12 10 2 7 -9 -2 -23 16 -41 52 -14 31 -39 71
-54 90 -27 31 -29 32 -42 15 -12 -16 -11 -21 9 -36 19 -15 20 -18 6 -18 -11 0
-18 -8 -18 -21 0 -16 -4 -19 -20 -14 -12 4 -28 1 -37 -7 -15 -12 -15 -11 -3
12 7 14 21 36 31 49 11 13 19 32 19 42 0 10 9 21 20 24 27 9 26 29 -1 22 -15
-4 -37 4 -65 24 -54 37 -57 22 -6 -33 l39 -41 -26 -39 c-20 -32 -30 -38 -48
-33 -25 6 -30 -4 -12 -22 8 -8 8 -21 -1 -47 -12 -36 -23 -45 -35 -26 -3 6 -1
10 4 10 6 0 11 21 11 48 l0 47 -49 0 c-46 0 -49 -2 -61 -32 -6 -18 -15 -33
-20 -33 -10 0 -3 28 13 48 7 8 5 12 -7 12 -10 0 -16 -9 -16 -24 0 -13 -7 -29
-15 -36 -8 -7 -15 -17 -15 -22 0 -7 5 -6 13 0 10 8 16 6 25 -9 9 -14 19 -18
40 -13 21 4 24 3 12 -5 -13 -10 -8 -15 13 -12 14 2 7 -20 -8 -25 -8 -4 -15
-14 -14 -23 0 -10 2 -11 6 -3 2 6 9 10 14 7 5 -3 17 -1 28 5 13 7 22 7 26 0 4
-6 11 -7 17 -4 6 4 14 0 19 -7 7 -9 7 -5 3 14 -5 21 -3 27 11 27 13 0 16 -9
15 -42 -4 -97 -2 -107 23 -100 20 5 21 4 7 -14 -8 -10 -19 -22 -23 -25 -10 -7
2 -59 14 -59 5 0 9 5 9 12 0 6 3 8 7 5 8 -9 -27 -47 -43 -47 -11 0 -13 17 -11
70 1 39 -1 70 -5 70 -5 0 -7 6 -5 13 1 9 -21 13 -80 15 -69 2 -83 0 -83 -13 0
-11 11 -15 46 -15 27 0 43 -4 39 -10 -3 -5 -24 -10 -46 -10 -28 0 -39 -4 -39
-15 0 -9 -7 -18 -16 -22 -13 -5 -12 -8 6 -25 11 -10 18 -23 15 -28 -3 -5 -1
-11 5 -15 20 -12 9 -21 -20 -17 -16 2 -30 8 -30 13 0 5 -8 9 -17 8 -12 0 -14
-2 -5 -6 9 -4 0 -18 -29 -45 -28 -26 -44 -35 -49 -28 -6 9 -9 9 -13 -1 -5 -12
-7 -12 -15 -1 -7 11 -10 10 -16 -3 -5 -14 -9 -15 -21 -5 -10 9 -15 9 -15 1 0
-6 -3 -10 -7 -9 -5 1 -25 -2 -45 -6 -37 -8 -51 -30 -25 -39 8 -3 6 -7 -6 -12
-25 -11 -29 -4 -34 68 -5 58 -3 66 13 70 17 4 17 5 1 6 -10 0 -17 7 -16 14 3
28 -2 48 -11 42 -6 -4 -10 5 -10 19 0 34 -23 33 -38 -1 -10 -26 -11 -26 -6 -3
3 14 14 31 25 39 25 18 24 41 -2 41 -15 0 -19 5 -15 16 3 8 2 12 -3 9 -6 -3
-13 1 -18 8 -10 18 -53 41 -61 33 -3 -3 -2 -6 3 -6 4 0 2 -6 -4 -14 -9 -11 -8
-15 5 -20 12 -4 15 -2 10 9 -3 9 0 15 9 15 14 0 31 -37 21 -47 -3 -4 -6 2 -6
13 -1 18 -1 18 -14 2 -7 -10 -21 -18 -30 -18 -34 0 -15 -28 27 -37 l42 -11
-42 -1 -41 -1 0 -52 c-1 -28 -5 -54 -10 -57 -4 -3 -14 -21 -22 -40 -8 -19 -16
-29 -18 -22 -4 13 -71 -53 -73 -72 -1 -7 -2 -16 -4 -22 -1 -5 -3 -17 -3 -27
-2 -11 -8 -14 -22 -11 -17 5 -26 -6 -17 -22 3 -7 -36 -34 -51 -35 -7 0 -10 5
-7 10 4 6 11 8 16 5 5 -4 9 -2 9 4 0 20 -19 21 -33 1 -19 -28 -31 -12 -12 17
14 21 14 24 1 29 -21 8 -34 -2 -50 -40 -8 -18 -23 -36 -35 -39 l-22 -5 21 36
21 37 -31 -35 c-30 -33 -31 -34 -27 -10 2 14 8 34 12 45 7 16 3 15 -21 -7 -27
-25 -30 -26 -40 -10 -9 14 -15 15 -37 5 -24 -11 -27 -11 -27 7 0 16 -7 20 -34
20 -24 0 -36 -5 -40 -17 -2 -10 -2 -1 1 20 5 36 4 37 -25 37 -17 0 -34 5 -37
10 -3 6 0 10 7 10 8 0 14 14 15 35 3 37 2 38 -70 39 -36 0 -33 31 3 31 20 1
24 5 22 22 -4 27 28 25 39 -3 6 -15 8 -13 8 11 1 24 -6 35 -28 48 -37 22 -50
66 -24 85 17 14 17 14 -4 9 -13 -3 -27 1 -34 9 -9 12 -15 12 -27 2 -13 -11
-15 -10 -9 5 7 20 -1 21 -39 7 -24 -9 -26 -8 -21 9 3 14 1 18 -9 14 -8 -3 -12
-8 -9 -12 2 -4 0 -21 -5 -37 -6 -23 -8 -24 -9 -8 -1 20 -4 21 -43 12 -24 -5
-83 -7 -133 -4 -49 3 -162 9 -250 12 -88 4 -166 11 -172 16 -7 6 -13 7 -13 3
0 -4 -8 -1 -17 6 -15 12 -16 12 -10 -3 5 -14 1 -18 -19 -18 -17 0 -23 -4 -18
-12 6 -10 4 -10 -7 0 -7 6 -24 12 -37 12 -19 0 -23 4 -19 19 4 16 -2 21 -24
26 -27 6 -41 25 -19 25 6 0 10 10 11 23 0 21 1 21 9 2 5 -11 20 -33 34 -49
l24 -29 30 21 c16 12 33 18 37 14 5 -4 5 -1 1 6 -6 10 -12 9 -29 -3 -30 -21
-40 -19 -25 5 10 15 10 22 0 32 -9 9 -3 15 26 29 31 14 33 18 14 18 -19 1 -21
3 -10 15 7 8 19 11 26 7 19 -11 82 0 82 14 0 7 -7 18 -15 25 -20 16 -19 36 1
44 16 6 16 25 -1 71 -6 17 -5 17 5 5 9 -12 11 -12 8 -1 -3 8 -16 24 -31 35
-26 19 -27 19 -47 1 -11 -10 -20 -25 -20 -34 0 -9 -9 -22 -20 -29 -24 -14 -26
-41 -5 -68 20 -27 19 -34 -10 -34 -18 0 -25 -5 -25 -20 0 -11 7 -23 16 -27 14
-5 13 -9 -7 -24 -29 -23 -39 -24 -39 -4 0 9 -11 20 -25 25 -14 5 -25 14 -25
20 0 6 5 8 10 5 6 -4 17 -1 25 5 8 6 19 9 25 5 6 -4 10 4 10 17 0 13 5 29 12
36 9 9 8 12 -4 12 -9 0 -19 7 -22 16 -4 10 -12 14 -22 10 -12 -5 -15 -2 -10
10 3 8 6 23 6 32 0 13 2 14 9 3 6 -9 10 -10 16 -2 4 7 24 19 46 28 29 11 41
23 48 47 4 17 5 36 1 41 -15 23 -8 53 13 58 12 3 32 9 45 12 28 9 30 -13 2
-23 -11 -4 42 -9 117 -10 76 -2 158 -7 183 -13 44 -10 338 3 420 18 19 3 39 5
44 4 4 -1 5 29 2 66 -3 37 -8 123 -12 191 -4 89 -10 122 -19 122 -16 0 -27 40
-12 44 7 2 33 10 59 19 30 10 48 12 50 5 3 -7 64 -8 196 -1 173 8 193 10 207
28 12 16 14 17 9 3 -5 -14 -1 -18 17 -18 17 0 20 3 10 9 -9 6 -10 11 -2 15 6
4 11 2 11 -4 0 -6 4 -8 10 -5 5 3 7 0 5 -7 -6 -14 1 -16 65 -19 70 -2 80 0 74
19 -4 10 -3 13 3 6 17 -23 122 -26 108 -4 -3 5 -1 11 5 15 5 3 10 -1 10 -9 0
-8 4 -18 10 -21 6 -4 7 1 3 11 -4 12 -2 15 8 12 8 -3 13 -11 11 -18 -2 -10 17
-11 90 -6 51 5 101 8 111 8 9 -1 17 3 17 9 0 11 46 12 53 2 2 -5 3 -3 2 2 -2
6 20 10 50 10 29 0 51 -3 48 -7 -2 -5 7 -8 21 -8 14 0 26 5 26 11 0 5 -4 8 -9
4 -5 -3 -12 -1 -16 5 -3 5 1 10 10 10 8 0 18 -7 21 -15 4 -8 13 -15 21 -15 8
0 12 4 8 9 -3 5 -1 12 5 16 5 3 10 -2 11 -12 0 -10 3 -13 6 -5 2 6 12 12 21
12 13 0 14 -2 4 -8 -8 -6 -2 -9 17 -9 24 0 28 3 20 13 -7 9 -7 19 1 34 14 26
20 22 23 -16 3 -33 23 -43 32 -15 5 17 15 21 51 21 32 0 44 -4 44 -15 0 -10
10 -15 33 -14 17 0 27 3 21 5 -6 3 -10 15 -8 27 2 12 5 69 8 125 4 98 3 104
-15 99 -16 -4 -19 0 -18 31 0 21 4 46 9 57 8 18 9 17 9 -7 1 -16 6 -28 11 -28
6 0 10 3 10 8 0 4 11 72 24 152 20 118 22 147 11 158 -10 11 -14 4 -20 -43 -3
-31 -9 -54 -12 -51 -3 3 0 39 7 80 l13 75 36 -47 c65 -86 63 -84 143 -86 40 0
170 0 288 2 192 2 212 4 190 17 -14 8 -33 14 -42 15 -10 0 -18 4 -18 10 0 6
171 9 458 10 435 0 603 3 932 16 80 3 226 6 325 7 l180 2 11 151 c7 84 17 160
23 170 9 16 11 13 12 -21 l1 -40 10 42 c8 37 18 49 86 98 74 53 122 69 137 45
3 -5 44 -10 91 -10 66 0 84 3 84 14 0 12 -24 14 -137 12 l-138 -2 -175 -120
c-351 -239 -392 -264 -435 -264 l-40 1 40 35 c22 19 177 126 345 237 256 170
311 203 343 204 20 0 73 1 117 2 l80 1 0 290 0 290 -3520 0 -3521 0 2 -1430z
m6579 432 c0 -78 -11 -112 -36 -112 -9 0 -49 14 -91 30 -55 22 -91 30 -136 30
l-62 0 85 52 c47 29 114 73 150 98 l65 46 12 -35 c7 -20 13 -69 13 -109z
m-6109 -1041 c-21 -13 23 -25 47 -12 20 11 82 12 82 2 0 -12 -33 -54 -77 -97
-40 -41 -91 -63 -114 -48 -16 10 29 33 53 26 10 -2 18 1 18 7 0 6 -3 10 -7 10
-5 -1 -14 -1 -22 0 -12 1 -12 3 1 14 9 6 18 24 22 40 6 26 6 27 -14 10 -11
-10 -20 -23 -20 -29 0 -17 -78 -56 -86 -43 -4 6 -11 6 -20 -2 -19 -16 -29 -5
-11 13 8 7 19 23 26 36 6 12 19 22 29 22 9 0 33 14 52 30 19 16 40 30 45 30 6
0 4 -4 -4 -9z m615 -113 c16 -7 32 -17 35 -21 9 -13 88 -26 91 -15 2 5 11 6
21 3 9 -4 15 -11 12 -15 -3 -5 1 -13 10 -17 13 -8 12 -12 -6 -32 -14 -14 -27
-20 -38 -15 -31 13 -61 16 -61 6 0 -5 -11 -13 -25 -16 -29 -7 -32 -31 -8 -58
11 -12 12 -18 3 -18 -7 0 -11 -9 -8 -23 5 -25 -22 -61 -30 -39 -7 21 -20 13
-15 -8 4 -16 2 -19 -12 -14 -14 6 -16 3 -10 -17 9 -29 35 -60 35 -41 0 19 18
14 25 -7 3 -10 17 -22 30 -25 34 -9 31 -23 -5 -28 -22 -3 -35 1 -50 19 -22 26
-28 27 -50 13 -13 -9 -13 -12 3 -24 10 -8 14 -17 9 -20 -6 -3 -12 1 -16 9 -7
18 -62 20 -69 3 -11 -32 -16 12 -22 203 l-6 206 64 2 c35 1 77 -4 93 -11z
m255 -173 c5 4 9 13 9 21 0 11 5 10 21 -5 17 -15 20 -27 16 -51 -4 -16 -3 -30
2 -30 5 0 11 -11 13 -24 4 -18 1 -24 -11 -24 -9 0 -29 -2 -46 -6 -20 -5 -26
-4 -16 2 9 7 10 12 2 16 -6 4 -18 0 -27 -8 -8 -9 -20 -16 -26 -16 -6 0 -7 -12
-3 -30 4 -19 3 -30 -4 -30 -6 0 -11 13 -11 28 0 40 -42 64 -67 39 -20 -20 -8
-37 26 -40 22 -1 28 -12 12 -22 -5 -3 -12 -1 -15 4 -3 4 -20 11 -38 15 -24 5
-29 9 -20 18 13 13 16 32 5 25 -5 -2 -15 4 -25 14 -15 16 -15 18 10 24 15 3
44 17 65 31 36 23 37 24 37 4 0 -24 13 -26 30 -5 9 10 9 15 1 15 -6 0 -11 5
-11 11 0 5 4 8 9 4 13 -7 26 16 14 24 -6 3 -10 14 -10 24 0 15 4 14 24 -8 13
-14 28 -23 34 -20z m2503 -232 c-4 -22 -3 -25 5 -13 6 8 11 11 11 5 0 -5 7 -1
15 9 12 15 15 16 15 5 0 -9 15 -23 33 -33 17 -9 24 -14 15 -12 -10 3 -18 0
-18 -5 0 -7 11 -9 27 -6 15 3 32 -1 39 -8 18 -18 6 -25 -23 -14 -41 15 -38 3
6 -27 44 -29 54 -50 20 -41 -15 4 -19 2 -15 -10 3 -8 6 -19 6 -24 0 -5 16 -9
35 -9 19 0 35 -4 35 -10 0 -5 -10 -10 -23 -10 -18 0 -25 -8 -34 -40 -5 -22 -7
-40 -2 -40 4 0 9 8 11 18 3 15 4 14 9 -3 3 -11 3 -31 0 -43 -6 -23 -8 -21 -34
19 -15 23 -21 36 -12 29 15 -12 17 -11 13 10 -2 15 -9 24 -17 22 -11 -2 -12 0
-3 11 9 10 7 17 -6 29 -29 26 -52 58 -49 67 1 5 -7 17 -18 25 -19 15 -19 17
-2 30 17 13 16 15 -12 21 -17 4 -44 4 -61 0 -23 -5 -30 -3 -30 8 0 8 7 18 16
21 8 3 12 10 9 16 -5 8 18 24 43 29 1 1 0 -11 -4 -26z m316 -29 c0 -16 -4 -23
-11 -18 -8 4 -8 0 0 -15 7 -12 11 -66 10 -135 -2 -118 3 -145 25 -127 7 6 16
8 19 4 12 -11 8 -23 -8 -23 -8 0 -15 -5 -15 -11 0 -5 4 -8 8 -5 5 3 6 -8 4
-25 -4 -26 -16 -35 -44 -30 -5 0 -8 -4 -8 -10 0 -6 14 -9 31 -7 26 2 33 -2 41
-22 5 -13 6 -21 2 -17 -4 4 -14 1 -22 -6 -13 -9 -14 -9 -8 1 4 7 2 12 -4 12
-6 0 -8 5 -5 10 3 6 2 10 -4 10 -5 0 -13 -5 -17 -12 -10 -16 -22 17 -23 65 -1
23 3 36 9 32 6 -3 10 -1 10 4 0 6 -4 11 -10 11 -15 0 -13 143 2 158 9 9 9 12
0 12 -7 0 -11 14 -9 39 1 21 5 37 10 34 11 -7 8 12 -4 24 -13 13 -3 73 12 73
5 0 9 -12 9 -26z m-2314 -174 c20 0 34 5 35 13 0 10 2 10 6 0 6 -15 63 -18 63
-3 0 6 9 10 20 10 11 0 20 -4 20 -10 0 -5 11 -10 25 -10 14 0 25 4 25 9 0 6
18 9 40 8 25 -1 40 -6 40 -14 0 -17 17 -17 23 0 3 7 6 5 6 -5 1 -10 -5 -18
-11 -19 -7 0 -2 -4 10 -10 30 -12 45 -3 37 22 -7 23 9 25 48 7 28 -13 36 -28
15 -28 -9 0 -9 -3 0 -12 10 -10 15 -10 22 2 7 12 12 12 22 2 6 -6 8 -12 3 -12
-5 0 0 -6 10 -14 17 -12 16 -14 -20 -18 -29 -3 -42 0 -56 15 -17 18 -19 19
-25 3 -5 -12 -10 -14 -19 -6 -10 8 -16 8 -22 -2 -12 -20 -363 -13 -363 7 0 22
-17 27 -33 10 -9 -8 -27 -19 -41 -25 -23 -8 -26 -7 -26 13 0 13 -5 28 -11 34
-9 9 -7 10 10 6 17 -4 21 -1 21 18 0 12 3 19 7 16 3 -4 12 -2 20 4 10 9 13 6
13 -12 1 -23 1 -23 23 6 18 24 22 26 25 12 3 -12 13 -17 38 -17z m2805 -5 c15
-5 19 -16 19 -55 l0 -49 -37 6 c-33 6 -35 5 -22 -9 8 -9 16 -16 19 -16 21 1
30 -4 30 -18 0 -10 -6 -14 -14 -11 -8 3 -17 -1 -20 -10 -5 -11 -2 -14 10 -9
11 4 15 2 11 -8 -4 -11 -1 -13 11 -9 16 6 16 5 1 -13 -9 -10 -14 -25 -12 -31
3 -7 0 -13 -6 -13 -6 0 -10 3 -10 8 4 24 -4 41 -21 47 -16 5 -20 15 -20 51 0
32 -4 44 -15 44 -8 0 -15 -8 -15 -17 -1 -15 -3 -15 -13 3 -7 12 -18 19 -26 16
-8 -3 -12 1 -9 9 3 8 21 15 41 17 24 2 37 8 37 18 0 23 -4 29 -17 28 -13 -2
-17 8 -8 17 7 8 66 10 86 4z m-2871 -139 c0 -12 -5 -27 -11 -33 -9 -9 -4 -12
19 -11 32 1 37 15 13 34 -10 8 -12 20 -7 40 7 25 9 27 20 13 9 -13 28 -17 79
-17 37 0 67 4 67 9 0 13 34 11 48 -3 10 -10 17 -10 32 0 32 20 88 15 95 -8 3
-11 13 -20 20 -20 19 0 25 -13 16 -29 -7 -10 -38 -13 -125 -12 -100 2 -116 0
-116 -14 0 -23 27 -29 46 -10 14 14 18 14 33 2 10 -10 23 -12 36 -7 37 16 85
11 92 -7 11 -33 36 -53 55 -47 10 3 18 1 18 -5 0 -6 -4 -11 -10 -11 -5 0 -10
-5 -10 -11 0 -5 5 -7 10 -4 6 3 10 0 10 -8 0 -18 -33 -27 -85 -22 -36 4 -182
10 -428 19 -48 2 -90 6 -94 10 -3 3 1 6 10 6 17 0 51 29 43 37 -3 3 -12 -2
-21 -11 -23 -22 -35 -20 -35 7 0 18 2 19 10 7 7 -11 10 -4 10 28 0 31 -4 42
-15 42 -9 0 -15 9 -14 23 1 16 2 18 6 5 6 -22 17 -23 37 -2 15 14 16 14 16 -3
0 -11 3 -14 8 -7 7 11 44 16 37 4 -2 -3 0 -12 6 -20 7 -12 9 -12 9 4 0 14 3
16 14 7 11 -9 13 -6 11 14 -2 16 2 25 11 25 8 0 14 7 14 15 0 8 -4 15 -10 15
-5 0 -10 6 -10 13 1 21 40 -34 40 -57z m1412 32 c-3 -14 -2 -19 6 -14 7 4 12
2 12 -3 0 -6 7 -11 16 -11 8 0 23 -8 32 -17 13 -13 14 -17 3 -21 -9 -3 -10 -7
-2 -11 5 -4 13 -34 15 -66 3 -33 3 -51 0 -40 -14 53 -26 66 -61 59 -21 -4 -33
-2 -33 5 0 7 -10 9 -26 5 -19 -5 -25 -4 -20 5 4 6 3 11 -2 11 -6 0 -13 7 -16
16 -7 18 21 64 40 64 7 0 18 9 24 20 14 26 20 25 12 -2z m-2274 -37 c2 -12 1
-29 -2 -38 -6 -14 -9 -14 -26 2 -20 18 -20 18 -9 -16 6 -19 20 -42 31 -51 20
-18 17 -65 -3 -52 -6 3 -16 0 -24 -6 -11 -9 -15 -9 -15 -1 0 6 4 11 9 11 5 0
7 9 4 20 -6 23 -11 24 -50 9 -15 -6 -30 -10 -32 -9 -2 1 -8 -4 -12 -12 -6 -9
-9 -6 -9 11 l0 23 -20 -23 c-10 -13 -19 -18 -20 -11 0 17 -27 15 -34 -3 -3 -8
-10 -15 -17 -15 -6 0 -9 7 -6 15 4 8 2 17 -4 20 -5 4 -4 12 5 20 8 8 11 25 8
42 l-5 27 40 -32 c40 -32 73 -41 73 -22 0 6 3 9 8 8 4 -1 17 2 30 6 29 10 19
26 -17 26 -15 0 -31 3 -35 8 -9 8 -12 9 -63 11 -31 2 -34 4 -18 11 11 5 34 9
52 9 18 1 36 7 40 15 8 15 50 24 93 21 18 -1 26 -8 28 -24z m608 -88 c13 -17
15 -17 29 2 14 17 17 18 25 5 16 -24 11 -40 -12 -50 -14 -5 -17 -9 -8 -10 11
0 12 -2 2 -8 -8 -6 -10 -19 -6 -40 7 -33 22 -40 42 -20 9 9 12 9 12 0 0 -7 5
-12 10 -12 6 0 10 7 10 15 0 23 28 18 32 -6 3 -21 8 -22 98 -20 l95 1 -27 -22
c-15 -13 -31 -35 -37 -49 -8 -22 -14 -25 -43 -21 -35 5 -72 37 -83 72 -3 11
-15 20 -26 20 -22 0 -24 -11 -7 -28 9 -9 9 -12 0 -12 -7 0 -12 -7 -12 -16 0
-12 -7 -15 -31 -12 -27 4 -30 3 -24 -16 4 -12 11 -55 15 -96 4 -41 11 -88 14
-105 3 -16 3 -24 0 -17 -3 6 -11 12 -19 12 -9 0 -15 27 -19 89 -7 78 -10 90
-28 94 -16 5 -19 12 -16 31 5 25 -16 44 -27 26 -10 -17 -25 -11 -25 9 0 20 26
36 35 22 3 -5 14 -7 25 -4 16 4 20 14 20 49 0 45 -12 60 -45 56 -15 -2 -17 -1
-7 6 11 7 7 11 -13 16 -31 8 -28 31 4 30 11 0 21 5 21 13 0 18 10 16 26 -4z
m487 -131 c-6 -4 40 -5 103 -4 98 3 113 2 108 -11 -8 -23 14 -30 25 -9 6 11 8
21 6 24 -3 2 14 5 38 6 l42 3 -3 -46 c-3 -38 -7 -45 -21 -40 -37 15 -74 18
-67 7 5 -8 -1 -12 -18 -12 -13 0 -26 6 -29 13 -3 9 -7 9 -20 -2 -12 -9 -32
-12 -61 -9 -33 4 -49 1 -60 -11 -15 -15 -17 -14 -22 5 -4 16 -12 19 -34 16
-18 -2 -32 -12 -35 -23 -9 -29 -20 -23 -23 12 -3 38 -10 51 -23 44 -5 -4 -9 1
-9 9 0 10 10 16 25 17 37 2 43 3 51 12 4 4 14 7 23 7 11 0 12 -3 4 -8z m-706
-33 c13 0 28 -8 35 -18 7 -11 18 -17 27 -13 10 4 13 1 9 -9 -3 -8 0 -22 6 -31
10 -14 13 -11 22 18 8 23 8 37 1 41 -6 3 -7 1 -3 -5 7 -12 -6 -17 -17 -6 -8 8
3 34 14 34 19 0 49 -44 43 -63 -5 -15 -2 -19 8 -15 11 5 14 -5 12 -49 -1 -30
4 -70 12 -89 18 -43 18 -43 -6 -37 -11 3 -20 10 -19 17 1 6 1 35 0 64 -1 49
-3 52 -26 52 -17 0 -25 -6 -26 -17 -1 -15 -2 -16 -6 -2 -2 9 -15 21 -28 27
-14 7 -25 17 -25 24 0 8 -5 6 -11 -4 -14 -26 -37 -11 -50 33 -11 35 -13 37
-25 21 -7 -9 -14 -12 -14 -7 0 6 -4 3 -10 -5 -8 -12 -10 -12 -16 3 -12 33 3
50 39 42 17 -4 42 -7 54 -6z m-307 -23 c0 -25 20 -48 20 -24 1 8 5 7 14 -5 13
-16 14 -16 20 8 4 16 13 25 25 25 11 0 25 2 33 5 25 9 47 -20 52 -71 8 -67 16
-125 22 -149 4 -15 3 -16 -4 -6 -7 9 -12 10 -16 2 -4 -6 -12 -11 -19 -11 -8 0
-8 3 1 12 16 16 16 118 0 119 -7 0 -29 3 -48 7 -19 3 -54 5 -77 5 l-41 0 0 53
c0 30 5 54 9 54 5 0 9 -11 9 -24z m2380 -133 c7 -32 18 -78 27 -103 27 -82 33
-132 17 -148 -17 -16 -49 -8 -38 9 4 7 3 9 -4 6 -11 -7 -81 66 -113 118 -11
17 -19 40 -19 51 0 25 85 124 105 124 8 0 18 -22 25 -57z m-770 -142 c0 -4 17
-8 37 -8 68 -2 143 -14 143 -24 0 -5 11 -9 25 -9 14 0 25 -4 25 -9 0 -5 11
-11 25 -13 14 -3 25 -1 25 3 0 5 5 9 10 9 6 0 10 -9 10 -20 0 -11 7 -20 16
-20 8 0 13 4 9 9 -8 15 15 25 28 12 6 -6 25 -11 43 -11 32 0 44 -13 44 -51 0
-15 7 -19 34 -19 19 0 38 -4 41 -10 3 -5 15 -10 26 -10 10 0 19 -4 19 -10 0
-5 5 -10 11 -10 5 0 7 5 3 12 -4 6 4 3 18 -8 l26 -19 -24 -47 -24 -47 -31 17
c-24 13 -33 14 -36 5 -6 -17 -23 -16 -23 1 0 22 -24 36 -75 42 -34 4 -50 1
-56 -8 -6 -9 -9 -8 -9 7 0 14 -19 29 -66 53 -35 18 -69 30 -74 27 -5 -3 -11
-1 -15 5 -3 5 -15 10 -26 10 -11 0 -22 7 -25 15 -4 8 -10 13 -14 10 -4 -3 -13
2 -20 10 -7 8 -18 15 -25 15 -6 0 -33 11 -59 25 -26 14 -51 23 -56 20 -5 -3
-11 -1 -15 5 -3 6 1 13 9 16 16 6 23 25 9 23 -16 -3 -24 1 -19 10 6 9 56 2 56
-8z m1537 -64 c-7 -20 3 -31 43 -47 37 -14 137 -76 145 -91 3 -4 -8 -3 -26 3
-45 15 -101 -4 -154 -55 -36 -35 -47 -56 -66 -119 l-23 -76 -25 28 c-33 35
-71 87 -71 96 0 4 -7 15 -15 24 -14 16 -14 21 1 53 10 20 20 35 23 33 3 -2 7
7 7 20 2 30 67 120 85 117 8 -1 26 -5 41 -9 23 -5 26 -4 21 15 -3 13 -1 21 7
21 7 0 10 -6 7 -13z m-662 -154 c10 14 75 26 75 13 0 -2 3 -12 7 -22 4 -12 3
-15 -5 -10 -11 7 -13 2 -16 -46 -1 -23 -16 -35 -16 -13 0 10 -2 16 -5 13 -9
-9 7 -67 17 -65 21 4 20 -24 -1 -30 -25 -6 -28 -23 -3 -23 15 -1 15 -2 -2 -12
-11 -6 -35 -26 -53 -45 -19 -18 -37 -33 -42 -33 -21 0 -29 156 -11 191 16 29
3 23 -42 -21 -23 -22 -47 -40 -53 -40 -6 0 -26 9 -46 19 l-36 20 -22 -39 c-11
-21 -28 -40 -36 -44 -18 -6 -18 -7 -4 32 6 18 15 30 19 27 5 -3 14 4 21 16 8
16 8 23 0 29 -8 5 -5 19 10 48 l22 41 71 3 c47 2 82 -2 104 -12 31 -13 35 -13
47 3z m-395 -625 c0 7 7 12 16 12 8 0 13 -4 10 -8 -3 -5 9 -6 26 -4 21 3 29 1
24 -7 -4 -6 -13 -11 -20 -11 -9 0 -12 -9 -8 -25 2 -14 8 -25 12 -25 5 0 16 -3
25 -7 15 -5 16 -1 11 25 -4 17 -3 33 3 36 6 4 8 -2 6 -14 -3 -16 2 -20 23 -21
37 -2 34 -2 62 5 l25 7 -24 -20 -23 -21 28 -1 c16 -1 32 -1 37 0 4 0 7 -2 7
-7 0 -4 -20 -7 -44 -7 -24 0 -42 2 -41 5 2 4 -5 12 -16 18 -19 12 -19 12 -4
-18 17 -32 26 -36 55 -20 26 14 41 -8 33 -53 -3 -20 -9 -34 -14 -31 -5 3 -15
2 -21 -3 -7 -4 -30 -8 -50 -9 -35 -2 -36 -1 -28 21 8 20 5 24 -17 30 -18 4
-29 1 -40 -12 -8 -10 -11 -11 -7 -3 5 9 -1 8 -15 -5 l-23 -20 3 20 c3 12 14
21 27 23 26 4 29 27 5 36 -10 4 -14 4 -10 0 6 -7 -62 -43 -89 -48 -7 -1 -19
-8 -28 -15 -18 -15 -21 -8 -6 20 6 10 17 19 24 19 7 0 20 17 28 38 12 31 13
42 3 55 -7 10 -10 28 -7 42 4 25 5 25 23 9 11 -10 19 -12 19 -6z m-441 -120
c17 -18 31 -41 31 -51 0 -10 5 -15 10 -12 6 3 10 -3 10 -14 0 -24 16 -36 23
-19 3 8 6 6 6 -5 1 -10 5 -16 10 -13 5 4 7 -3 4 -13 -4 -15 1 -20 19 -23 19
-2 23 -9 25 -38 2 -54 3 -56 14 -37 5 9 7 22 3 29 -4 6 -3 8 4 4 6 -3 14 -20
17 -37 6 -24 9 -28 17 -18 6 9 7 2 2 -21 -9 -48 -12 -49 -39 -18 -13 15 -25
25 -27 23 -2 -3 -45 35 -96 83 -87 82 -92 89 -92 127 0 48 9 85 21 85 4 0 22
-15 38 -32z m2475 -220 c5 -20 8 -21 17 -8 8 12 9 11 4 -7 -8 -30 24 -48 42
-25 11 15 14 15 23 2 12 -19 13 -33 1 -26 -5 3 -11 -1 -15 -9 -3 -8 -2 -15 3
-15 4 0 6 -13 3 -30 -2 -16 -9 -30 -16 -30 -6 0 -4 -5 4 -11 11 -8 5 -9 -24
-4 -21 4 -45 13 -53 21 -8 8 -20 14 -27 14 -24 0 -36 25 -29 63 5 34 7 35 19
20 18 -24 17 -33 -3 -33 -16 0 -16 -1 -1 -16 19 -19 48 -12 48 11 0 9 -7 18
-15 21 -17 7 -20 40 -5 49 15 9 12 25 -6 25 -8 0 -13 -4 -9 -9 3 -5 1 -12 -5
-16 -11 -7 -14 18 -3 28 14 15 41 6 47 -15z m-2624 -220 c-14 -6 -32 -10 -40
-9 -13 2 -13 1 0 -8 8 -6 23 -11 33 -11 9 0 17 -8 18 -17 0 -14 2 -13 9 5 10
25 16 28 17 10 0 -7 4 -21 8 -30 4 -11 3 -18 -5 -18 -6 0 -8 4 -5 10 4 6 -1 7
-11 3 -11 -4 -13 -8 -6 -11 7 -2 10 -8 6 -13 -3 -5 6 -4 20 2 14 7 23 15 21
20 -3 4 -1 10 5 14 5 3 10 1 10 -4 0 -6 13 -11 29 -11 29 0 30 -1 20 -29 -7
-20 -15 -28 -25 -24 -8 3 -14 2 -13 -3 4 -21 -2 -26 -16 -14 -13 11 -14 10
-10 -3 4 -8 2 -18 -4 -22 -7 -4 -11 4 -11 19 0 29 -20 36 -21 9 0 -11 -3 -13
-6 -5 -2 6 -11 12 -19 12 -8 0 -14 7 -14 16 0 14 3 14 18 3 14 -11 15 -11 5 1
-7 8 -13 22 -13 33 0 17 -1 17 -16 3 -16 -16 -34 -13 -34 5 0 6 5 7 10 4 6 -3
10 -2 10 4 0 15 -44 53 -48 41 -2 -5 -19 -10 -39 -10 -55 0 -35 25 22 28 27 1
51 5 54 7 2 3 18 5 35 4 l31 0 -25 -11z m1957 -215 c8 -10 12 -12 8 -6 -4 9
-1 11 9 7 9 -3 16 -12 16 -19 0 -7 17 -20 38 -28 20 -9 31 -16 25 -16 -27 -2
-13 -31 15 -33 41 -2 46 -3 61 -12 10 -6 12 -5 7 2 -4 7 -2 12 3 12 6 0 11 -5
11 -11 0 -6 6 -9 13 -6 6 2 11 10 10 16 -4 14 10 14 24 0 7 -7 12 -6 16 5 5
11 0 16 -13 16 -11 0 -24 9 -30 20 -10 18 -8 20 19 20 23 0 31 -6 39 -29 6
-16 8 -32 5 -35 -4 -3 0 -6 8 -6 12 0 12 -2 -1 -10 -12 -8 -12 -10 4 -16 18
-7 72 -112 62 -121 -2 -2 -18 3 -35 11 -17 9 -33 15 -35 14 -3 -2 -11 6 -19
16 -9 13 -21 17 -35 14 -12 -4 -26 0 -33 8 -9 11 -15 12 -26 2 -11 -9 -13 -8
-11 3 2 8 7 17 11 20 5 3 -6 9 -24 13 -18 3 -41 14 -51 23 -10 9 -18 12 -18 6
0 -5 -7 -10 -15 -10 -11 0 -12 4 -4 13 12 15 1 23 -39 26 -17 1 -30 5 -30 8 2
19 -4 21 -16 5 -13 -18 -13 -15 -6 25 5 25 9 51 10 58 0 17 10 15 27 -5z m605
-203 c10 0 10 -2 -1 -9 -10 -6 4 -11 45 -16 32 -4 68 -9 79 -13 11 -3 25 -7
30 -7 6 -1 14 -3 19 -3 6 -1 2 -8 -8 -15 -16 -12 -16 -13 1 -13 10 0 30 -3 46
-7 15 -4 27 -4 26 0 -3 20 2 34 11 28 6 -4 8 -11 5 -16 -4 -5 6 -14 22 -21
l28 -11 -30 -7 c-16 -3 -34 -3 -40 0 -17 12 -65 18 -65 8 0 -5 13 -11 29 -14
16 -4 40 -16 53 -28 12 -11 26 -22 30 -22 5 -1 11 -2 16 -3 4 -1 -26 -20 -66
-42 -59 -33 -75 -39 -87 -29 -8 7 -12 17 -8 23 3 6 1 7 -6 3 -6 -4 -18 -2 -26
4 -18 15 -20 -1 -2 -20 10 -12 9 -12 -5 -1 -21 16 -39 6 -31 -17 4 -13 2 -13
-10 3 -9 11 -17 25 -17 32 0 6 -9 14 -19 18 -11 3 -18 12 -15 19 3 7 -2 20
-10 29 -9 9 -16 20 -16 26 0 6 -7 11 -15 11 -16 0 -35 30 -35 55 0 10 5 13 12
9 7 -4 8 -3 4 5 -4 6 -12 9 -17 6 -5 -4 -9 1 -9 9 0 26 -1 30 -13 44 -6 7 -6
12 -1 11 26 -5 45 2 38 14 -4 6 4 0 19 -15 14 -16 32 -28 39 -28z m-10 -1252
c64 -53 64 -149 -1 -220 -47 -53 -148 -29 -152 35 -7 109 42 197 111 197 15 0
33 -6 42 -12z m-2473 -484 c19 -9 58 -18 87 -21 43 -5 51 -9 46 -22 -5 -14 -3
-14 15 2 28 24 40 21 17 -4 -25 -29 -73 -48 -136 -55 -29 -3 -65 -12 -79 -20
-25 -12 -39 -10 -39 7 0 4 12 12 28 17 l27 10 -32 12 c-21 8 -35 22 -42 42
-16 44 -14 71 3 65 11 -4 13 -1 9 11 -5 13 0 12 28 -6 19 -12 49 -29 68 -38z
m292 -565 c-66 -61 -111 -88 -159 -96 -58 -10 -129 -13 -162 -7 -33 5 -34 7
-15 20 11 8 25 12 31 10 6 -2 46 2 88 9 86 15 148 47 194 100 17 19 36 35 42
35 5 0 10 5 10 12 0 7 7 5 18 -6 16 -17 14 -20 -47 -77z"/>
<path d="M6848 8233 c-21 -5 -26 -29 -34 -180 -6 -104 -9 -123 -23 -123 -14 0
-14 -2 -1 -10 8 -5 38 -10 66 -10 41 0 53 4 56 18 3 10 23 24 49 32 38 12 93
40 78 40 -2 0 -29 -9 -59 -19 -30 -11 -57 -18 -59 -16 -2 2 0 24 3 49 5 34 12
47 29 52 12 4 36 21 54 38 29 27 33 37 33 83 l0 53 -87 -1 c-49 -1 -96 -3
-105 -6z"/>
<path d="M6720 8207 c-8 -8 -35 -22 -59 -31 -49 -19 -331 -27 -1358 -42 -482
-6 -503 -7 -503 -25 0 -11 -4 -19 -10 -19 -5 0 -10 -4 -10 -10 0 -6 40 -10
100 -10 98 0 100 0 106 25 6 24 10 25 75 25 65 0 69 -1 69 -23 0 -23 1 -23
115 -23 110 1 115 2 115 22 0 26 12 29 107 33 70 2 72 2 79 -23 6 -26 7 -26
114 -26 107 0 108 0 114 25 6 24 10 25 76 25 69 0 70 0 70 -26 0 -22 3 -25 23
-20 12 3 63 6 113 6 88 0 92 1 98 23 5 22 11 23 96 26 l90 2 0 -25 0 -26 114
0 c111 0 115 1 118 23 2 18 10 22 36 22 26 1 37 -5 47 -25 12 -22 14 -23 20
-7 4 9 12 17 17 17 6 0 6 -6 -1 -14 -9 -11 -9 -15 1 -18 11 -4 11 -8 0 -20
-10 -13 -10 -17 0 -20 9 -3 10 -20 2 -70 -10 -65 -9 -67 13 -71 23 -4 42 8 24
15 -6 2 -6 46 0 117 6 63 9 129 7 148 -3 30 -5 32 -18 20z"/>
<path d="M6340 8031 c0 -21 -3 -59 -6 -85 l-7 -47 100 2 101 1 5 46 c3 26 12
51 22 58 9 7 12 15 7 18 -6 3 -8 15 -5 26 5 19 0 20 -106 20 l-111 0 0 -39z"/>
<path d="M5583 8053 l-43 -4 0 -80 c0 -62 3 -79 14 -79 10 0 16 14 19 43 l4
42 1 -44 2 -44 52 6 c28 4 55 12 60 19 6 10 8 10 8 1 0 -14 40 -19 40 -5 0 18
19 119 25 135 6 15 0 17 -66 15 -41 -1 -93 -3 -116 -5z"/>
<path d="M4848 8043 l-88 -4 0 -79 0 -80 105 0 c104 0 105 0 105 24 0 12 3 51
6 85 7 60 6 61 -17 59 -13 -1 -63 -4 -111 -5z"/>
<path d="M5130 7970 l0 -80 109 0 109 0 4 80 3 80 -112 0 -113 0 0 -80z"/>
<path d="M4418 7873 c-31 -3 -38 -8 -39 -26 -1 -12 -3 -48 -5 -79 l-3 -58 29
0 c29 0 29 0 32 68 l3 67 48 3 47 3 0 -64 c0 -69 6 -77 55 -77 21 0 23 4 24
85 l2 85 -78 -2 c-43 -1 -95 -3 -115 -5z"/>
<path d="M6960 7620 c-8 -5 -52 -7 -97 -3 -77 5 -83 5 -83 -13 0 -10 -2 -48
-5 -84 l-4 -65 40 3 c32 3 39 8 40 26 1 19 2 19 10 -4 8 -24 8 -24 6 5 -1 17
-5 35 -9 40 -13 19 32 75 60 76 40 1 78 14 66 21 -5 4 -16 3 -24 -2z"/>
<path d="M5958 7603 c-49 -3 -58 -7 -58 -23 0 -13 5 -17 14 -14 12 4 13 -6 9
-54 -3 -37 0 -63 6 -67 6 -3 11 1 11 9 0 9 5 16 10 16 6 0 10 5 10 11 0 5 -4
7 -10 4 -6 -4 -10 12 -10 39 0 29 5 47 13 47 6 1 27 3 45 5 l34 2 -3 -61 c-2
-34 0 -63 4 -64 19 -7 22 0 19 40 -2 23 1 53 7 67 9 21 10 14 8 -39 -3 -86 16
-91 30 -9 5 35 13 71 18 81 8 18 -6 19 -157 10z"/>
<path d="M6310 7600 c0 -5 5 -10 10 -10 6 0 10 -18 10 -40 0 -25 -5 -40 -12
-40 -9 0 -8 -4 2 -10 9 -6 10 -10 3 -10 -6 0 -11 -9 -10 -20 1 -19 8 -20 110
-20 l110 0 -6 35 c-5 30 -3 35 14 35 10 0 19 4 19 10 0 5 -7 7 -15 4 -12 -5
-15 3 -15 35 l0 41 -110 0 c-67 0 -110 -4 -110 -10z"/>
<path d="M5168 7593 c-27 -2 -48 -8 -48 -13 0 -5 7 -7 16 -3 12 5 15 0 14 -23
-1 -16 -2 -52 -1 -81 l1 -52 46 16 c30 10 48 12 53 6 10 -17 71 -3 71 16 0 10
3 21 7 25 4 4 6 25 4 47 -1 22 3 47 9 55 11 12 3 14 -56 12 -38 -1 -90 -3
-116 -5z"/>
<path d="M4370 7325 l0 -85 109 1 c88 0 111 4 115 16 9 24 7 24 -19 7 -23 -15
-24 -15 -31 10 -3 15 -3 46 0 71 9 58 32 60 44 3 l9 -43 4 53 4 52 -117 0
-118 0 0 -85z"/>
<path d="M6760 7245 c0 -20 5 -25 26 -25 14 0 23 -4 20 -9 -4 -5 0 -11 6 -14
7 -3 -5 -3 -27 0 l-40 5 -1 -85 0 -85 45 -5 c51 -6 74 0 64 16 -7 12 -5 112 3
139 3 10 -2 18 -13 20 -16 4 117 39 135 37 4 -1 14 -1 22 0 13 1 13 3 1 10 -8
5 -24 6 -35 2 -12 -5 -41 -11 -65 -15 -40 -6 -43 -5 -38 14 5 18 0 20 -49 20
-51 0 -54 -1 -54 -25z"/>
<path d="M6308 7183 c-12 -3 -19 -20 -23 -57 -10 -76 -4 -102 20 -98 11 2 23
9 27 15 4 7 15 12 24 12 10 0 22 14 30 35 l12 35 1 -42 c1 -40 -1 -42 -31 -46
-18 -2 4 -5 50 -5 52 -1 82 2 82 9 0 5 -4 8 -9 5 -5 -3 -5 15 0 41 5 26 14 50
20 54 8 4 8 8 1 13 -6 4 -9 13 -5 21 4 13 -10 15 -88 14 -52 -1 -102 -3 -111
-6z"/>
<path d="M5893 7173 c-9 -3 -13 -28 -13 -79 l0 -74 83 1 c45 1 93 -2 107 -6
22 -7 23 -6 12 8 -8 9 -11 21 -7 28 4 6 8 30 10 52 1 23 5 50 10 60 7 17 1 18
-91 16 -55 -1 -105 -4 -111 -6z"/>
<path d="M5106 7133 c-3 -21 -6 -57 -6 -81 l0 -43 103 3 102 3 3 48 c2 26 7
47 11 47 4 0 8 14 8 30 l0 30 -107 0 -107 0 -7 -37z"/>
<path d="M5238 6937 c-16 -13 -28 -30 -28 -40 0 -9 -6 -17 -14 -17 -8 0 -26
-13 -39 -30 -14 -16 -32 -30 -41 -30 -8 0 -16 -6 -19 -12 -7 -21 4 -38 24 -38
12 0 16 -5 13 -15 -4 -8 -12 -15 -19 -15 -15 0 -25 -44 -25 -106 l0 -44 41 0
c24 0 38 4 34 10 -3 6 -1 10 4 10 6 0 11 -5 11 -11 0 -8 6 -7 17 2 15 13 15
12 3 -11 -11 -21 -11 -23 1 -14 8 7 29 15 48 19 34 7 34 7 17 -11 -13 -12 -15
-19 -7 -22 8 -3 9 -8 2 -16 -7 -8 -4 -16 11 -25 17 -10 19 -10 15 1 -2 7 0 21
5 31 6 12 5 17 -4 17 -8 1 -5 7 6 15 11 8 14 15 8 15 -9 0 -11 15 -7 52 8 66
12 71 38 53 26 -18 41 -20 30 -2 -4 6 -9 23 -11 36 -3 20 0 23 20 18 22 -6 23
-6 3 9 -17 13 -18 16 -5 24 8 5 19 10 24 10 5 0 7 3 4 6 -4 3 -16 0 -29 -6
-19 -11 -21 -10 -16 3 4 11 2 14 -8 11 -7 -3 -19 4 -25 17 -11 20 -10 21 9 16
12 -3 19 -1 15 4 -8 13 -32 11 -41 -5 -10 -17 -83 -31 -83 -16 0 5 -5 10 -11
10 -5 0 -7 -6 -4 -12 4 -7 0 -5 -9 6 -8 10 -20 15 -27 10 -8 -5 -10 -3 -4 5 4
8 21 11 41 9 19 -2 34 0 34 4 0 4 -4 8 -9 8 -14 0 0 43 22 68 26 28 20 28 -15
-1z"/>
<path d="M6720 6733 c0 -21 -3 -62 -7 -92 -6 -53 -6 -53 17 -41 12 6 35 10 51
8 22 -4 29 0 33 17 6 25 44 35 140 35 33 0 57 3 53 6 -7 8 -108 7 -152 -2 -30
-5 -35 -3 -35 13 0 10 6 25 13 32 10 11 9 12 -2 6 -11 -6 -13 -1 -9 24 l5 31
-54 0 -53 0 0 -37z"/>
<path d="M5923 6753 l-63 -4 0 -49 c0 -29 -5 -50 -12 -53 -10 -4 -10 -6 0 -6
6 -1 12 -8 12 -16 0 -8 13 -16 33 -19 48 -8 141 -2 149 9 4 5 8 29 8 53 0 25
6 50 15 58 34 35 25 36 -142 27z"/>
<path d="M6260 6682 l0 -78 103 1 c92 0 103 2 99 17 -2 10 3 18 15 21 15 4 14
5 -4 6 -16 1 -23 7 -23 20 0 11 4 21 9 23 5 2 12 18 16 36 l7 32 -111 0 -111
0 0 -78z"/>
<path d="M106 6566 c-33 -12 -61 -27 -63 -33 -2 -5 8 -18 22 -27 14 -9 23 -21
20 -26 -3 -5 -1 -12 5 -15 6 -4 8 -15 5 -26 -6 -17 -1 -19 49 -19 l56 0 1 43
c1 41 1 41 12 15 8 -22 18 -28 40 -28 15 0 26 3 24 8 -3 4 -1 16 3 27 7 18 8
17 15 -8 7 -26 11 -28 49 -25 22 2 40 8 39 13 -1 6 12 10 29 10 17 0 33 6 35
13 3 8 -8 12 -36 12 -24 0 -41 5 -41 12 0 8 -26 9 -94 5 l-94 -6 5 39 c7 47 4
48 -81 16z"/>
<path d="M2224 5818 c-4 -6 -19 -7 -35 -4 -32 6 -38 -4 -14 -24 9 -7 14 -19
11 -26 -7 -18 11 -22 65 -17 29 4 49 1 53 -6 5 -7 -2 -11 -19 -11 -17 0 -24
-4 -19 -12 5 -8 2 -9 -9 -5 -10 4 -17 2 -17 -5 0 -7 -4 -7 -13 0 -14 12 -147
-15 -147 -30 0 -4 7 -8 15 -8 15 0 55 -19 65 -31 3 -3 13 -8 23 -12 9 -3 17
-12 17 -19 0 -10 -2 -10 -9 1 -5 7 -14 10 -20 7 -6 -4 -11 -2 -11 3 0 6 -7 11
-15 11 -11 0 -9 -6 7 -22 27 -27 64 -30 62 -5 -1 9 2 17 7 17 5 0 9 -7 9 -16
0 -24 24 -11 28 15 4 28 46 45 73 30 15 -7 24 -7 34 1 17 14 9 40 -14 41 -13
0 -13 2 -1 6 24 9 50 35 44 44 -2 5 -17 6 -32 3 -20 -4 -33 0 -47 16 -15 17
-16 21 -5 20 44 -7 52 7 18 29 -27 17 -96 22 -104 9z"/>
<path d="M6321 2566 c-7 -9 -22 -16 -32 -16 -10 0 -20 -4 -23 -9 -4 -5 -23 -3
-46 6 -34 14 -44 14 -65 3 -18 -10 -34 -10 -69 -1 -54 13 -56 13 -56 2 0 -5
10 -13 23 -17 20 -7 19 -9 -13 -15 l-35 -6 32 -2 c17 0 35 3 38 9 3 5 16 -2
29 -17 14 -16 35 -28 52 -29 16 -1 37 -5 47 -9 10 -5 17 -3 17 5 0 7 9 2 19
-11 l19 -24 13 28 c15 33 25 34 40 5 12 -23 36 -44 54 -48 6 -1 14 -8 19 -17
7 -13 10 -13 17 -2 6 10 9 11 9 2 0 -7 6 -13 14 -13 21 0 28 -28 8 -33 -13 -4
-13 -5 4 -6 11 0 25 4 32 11 8 8 12 8 12 1 0 -6 9 -13 20 -16 13 -3 18 -1 13
6 -4 7 0 8 11 4 10 -4 20 -7 22 -7 2 0 4 -5 4 -11 0 -14 29 -43 47 -45 8 -2
17 -5 20 -8 3 -2 16 -1 29 4 13 5 23 6 23 2 -4 -27 3 -44 16 -38 8 3 18 -2 23
-11 8 -14 10 -14 15 1 4 9 16 16 29 16 21 0 21 0 2 16 -18 15 -18 15 4 9 16
-5 22 -2 22 9 0 9 -8 16 -19 16 -12 0 -21 9 -25 25 -4 14 -11 25 -16 25 -6 0
-10 5 -10 11 0 6 7 9 15 5 8 -3 15 -1 15 4 0 17 30 -2 30 -19 1 -14 2 -14 11
2 5 9 15 17 20 17 6 0 8 -4 5 -8 -2 -4 7 -8 22 -9 15 -1 21 1 14 4 -6 2 -10 9
-6 14 3 5 -2 12 -10 15 -9 3 -14 10 -11 14 3 4 -1 10 -8 13 -8 3 -14 -3 -14
-15 -3 -30 -8 -31 -37 -12 -15 9 -29 14 -33 11 -3 -4 -11 1 -18 9 -10 15 -14
15 -41 1 -26 -14 -27 -16 -10 -23 12 -5 21 -3 24 4 2 7 9 12 15 12 8 0 7 -4
-1 -12 -14 -14 -16 -32 -3 -24 9 6 25 -23 18 -31 -9 -8 -66 10 -60 20 4 6 0 8
-10 4 -23 -9 -49 3 -40 17 5 7 1 4 -9 -6 -20 -22 -53 -24 -44 -3 7 20 -18 20
-38 0 -13 -14 -16 -13 -28 7 -7 13 -11 26 -10 31 1 4 -6 8 -15 8 -43 3 -48 5
-45 17 1 6 -4 12 -12 12 -8 0 -13 8 -12 17 0 10 -6 18 -17 18 -22 0 -49 49
-35 63 6 6 8 16 6 22 -3 9 -8 7 -17 -4z"/>
<path d="M6797 2253 c-15 -2 -25 -9 -22 -14 4 -5 -3 -9 -14 -9 -12 0 -21 -5
-21 -11 0 -7 -10 -9 -25 -7 -14 3 -28 1 -31 -3 -3 -5 0 -9 6 -9 6 0 21 -12 34
-27 21 -25 25 -26 42 -13 10 8 15 10 11 4 -3 -6 0 -11 8 -11 17 0 19 9 5 23
-6 6 -3 14 9 21 16 10 18 8 15 -13 -1 -15 7 -35 22 -51 13 -14 24 -23 24 -19
0 4 9 2 19 -3 16 -9 18 -8 15 12 -2 12 -2 16 2 10 3 -7 15 -13 26 -13 14 0 18
-5 14 -15 -3 -8 -1 -15 3 -15 5 0 12 6 14 13 3 7 6 5 6 -5 1 -20 -16 -23 -53
-8 -17 6 -27 6 -32 -1 -9 -15 0 -20 35 -21 31 -1 40 -11 21 -23 -5 -3 -16 -3
-22 2 -7 4 -19 8 -27 9 -23 4 21 -30 57 -43 27 -9 32 -9 32 4 0 10 -6 13 -17
8 -14 -5 -15 -3 -6 6 6 6 9 17 7 23 -3 7 4 21 16 31 12 11 20 13 20 6 0 -7 5
-9 10 -6 6 3 10 1 10 -4 0 -6 7 -11 15 -11 18 0 19 29 3 66 -10 22 -10 28 0
32 6 2 12 8 12 13 0 12 -34 11 -46 -1 -7 -7 -15 -3 -24 14 -7 14 -27 30 -44
36 -17 6 -39 16 -49 22 -11 5 -22 7 -25 4 -3 -3 0 -6 6 -6 6 0 9 -7 6 -15 -4
-8 -10 -15 -16 -15 -5 0 -6 5 -2 11 4 8 -1 9 -17 4 -21 -7 -22 -6 -10 9 7 9
12 15 10 15 -2 -1 -16 -4 -32 -6z"/>
</g>
</svg>
